<svg width="72" height="80" viewBox="0 0 72 80" fill="none" xmlns="http://www.w3.org/2000/svg">
<path d="M25.3426 72.9542L15.7319 63.3434C8.0363 55.648 8.0363 43.1709 15.7319 35.4756L49.9335 1.27405L65.3349 16.6755L34.6922 47.3183L25.3426 72.9542Z" fill="#76AA3E"/>
<path d="M15.7319 35.4756C8.0363 43.1713 8.0363 55.6481 15.7319 63.3434L20.5372 68.1488C12.8416 60.4533 12.8416 47.9763 20.5372 40.2809L54.7388 6.07939L49.9335 1.27423L15.7319 35.4756Z" fill="#C9E949"/>
<path d="M25.3425 45.0863C17.6469 52.7817 17.6469 65.2588 25.3425 72.9541C33.0381 80.6495 45.515 80.6495 53.2103 72.9541C60.9058 65.2585 60.9058 52.7816 53.2103 45.0863L49.7721 41.648L70.0397 21.3803L59.5438 10.8847L25.3425 45.0863Z" fill="#3A7633"/>
<path d="M30.148 49.8915C35.1814 44.8581 43.3717 44.8581 48.4052 49.8915C53.4386 54.925 53.4386 63.1153 48.4052 68.1487C43.3717 73.1822 35.1814 73.1822 30.148 68.1487C25.1144 63.1153 25.1144 54.9253 30.148 49.8915Z" fill="#C9E949"/>
<path d="M34.9406 68.1491C29.9072 63.1156 29.907 54.9253 34.9406 49.8917C36.8464 47.986 39.2048 46.8035 41.6728 46.3406C37.622 45.5813 33.2756 46.7641 30.1478 49.8917C25.1142 54.9253 25.1142 63.1155 30.1478 68.1491C33.2756 71.2769 37.622 72.4597 41.6728 71.7002C39.2048 71.2374 36.8464 70.0547 34.9406 68.1491Z" fill="#76AA3E"/>
<path d="M21.8441 41.5881L28.4189 35.0133L22.3069 28.9013L15.7321 35.4761L21.8441 41.5881Z" fill="#293133"/>
<path d="M29.242 48.9905C23.7116 54.5211 23.7116 63.5197 29.2419 69.05C31.917 71.725 35.4791 73.1983 39.2716 73.1983C43.0641 73.1983 46.6261 71.725 49.3011 69.05C51.9763 66.3749 53.4494 62.813 53.4494 59.0205C53.4494 55.2278 51.9763 51.666 49.3011 48.9908C46.626 46.3158 43.0641 44.8425 39.2714 44.8425C35.4791 44.8424 31.917 46.3155 29.242 48.9905ZM50.9013 59.0203C50.9013 62.1321 49.6931 65.0541 47.4992 67.2478C45.3053 69.4417 42.3836 70.6499 39.2716 70.6499C36.1595 70.6499 33.2377 69.4417 31.0439 67.2478C26.5072 62.7113 26.5072 55.3294 31.0439 50.7927C33.2378 48.5988 36.1595 47.3908 39.2714 47.3908C42.3835 47.3908 45.3052 48.5989 47.4991 50.7928C49.693 52.9864 50.9013 55.9085 50.9013 59.0203Z" fill="#26150C"/>
<path d="M70.936 20.4794L60.4402 9.98359L60.4399 9.98328L50.8294 0.373125C50.3317 -0.124375 49.5249 -0.124375 49.0275 0.373125L14.8258 34.5745C6.64596 42.7547 6.64596 56.0645 14.8258 64.2445L24.4364 73.8552C28.3991 77.8177 33.6675 80 39.2714 80C44.8752 80 50.1438 77.8177 54.1063 73.8553C62.2861 65.6752 62.2861 52.3655 54.1063 44.1853L51.5689 41.6481L70.9358 22.2819C71.4336 21.7839 71.4336 20.9772 70.936 20.4794ZM17.6797 35.325L22.3019 30.7027L26.6119 35.0127L21.8391 39.7856L17.5291 35.4756L17.6797 35.325ZM20.6092 49.5488C18.703 53.3822 17.93 57.7906 18.5231 62.0359C18.625 62.7656 18.7672 63.4898 18.9485 64.2039C18.9628 64.2614 18.9775 64.3187 18.9927 64.3763C19.0413 64.5616 19.0919 64.7464 19.1458 64.9306C19.1497 64.9442 19.1531 64.958 19.1571 64.9714L16.628 62.4423C9.74455 55.5589 9.45549 44.5412 15.7586 37.3094L20.938 42.4888C21.1867 42.7375 21.513 42.8619 21.8389 42.8619C22.1649 42.8619 22.4911 42.7375 22.7399 42.4888L29.3147 35.9137C29.5538 35.6747 29.688 35.3508 29.688 35.0127C29.688 34.6745 29.5536 34.3508 29.3147 34.1116L24.1038 28.9006L49.9285 3.07609L57.737 10.8848C55.5911 13.0308 53.4452 15.1767 51.2992 17.3227C46.8492 21.7727 42.3989 26.223 37.9489 30.673C34.1653 34.4566 30.3819 38.24 26.5983 42.0236C24.5697 44.0522 22.5606 46.0294 21.1344 48.5584C20.9506 48.8839 20.7755 49.2141 20.6092 49.5488ZM48.8663 40.747C48.6272 40.9861 48.493 41.31 48.493 41.6481C48.493 41.9863 48.6272 42.31 48.8663 42.5492L52.3045 45.9873C59.491 53.1738 59.491 64.8667 52.3045 72.0531C48.8233 75.5344 44.1949 77.4516 39.2716 77.4516C34.3481 77.4516 29.7197 75.5345 26.2386 72.0531C25.3402 71.1548 24.5542 70.1861 23.8806 69.1645C23.7122 68.9092 23.5508 68.6505 23.3964 68.3887C19.1785 61.2394 20.3761 51.8498 26.2386 45.9873L59.5392 12.6867L68.233 21.3806L48.8663 40.747Z" fill="#26150C"/>
<g filter="url(#filter0_d_109_106)">
<path d="M4.742 43L9.404 33.2H11.602L16.25 43H13.8L11.112 37.358C11.0187 37.1433 10.9253 36.9427 10.832 36.756C10.748 36.5693 10.6687 36.3873 10.594 36.21C10.5287 36.0233 10.4633 35.8367 10.398 35.65C10.3327 35.4633 10.272 35.2767 10.216 35.09L10.734 35.076C10.6687 35.2813 10.6033 35.482 10.538 35.678C10.4727 35.8647 10.398 36.0513 10.314 36.238C10.23 36.4247 10.146 36.6113 10.062 36.798C9.978 36.9753 9.894 37.1667 9.81 37.372L7.136 43H4.742ZM6.912 41.236L7.682 39.444H13.282L13.688 41.236H6.912ZM19.1583 43V33.2H24.7723C25.4256 33.2 26.0089 33.34 26.5223 33.62C27.0449 33.9 27.4603 34.2827 27.7683 34.768C28.0763 35.2533 28.2303 35.7993 28.2303 36.406C28.2303 37.0593 28.0669 37.6473 27.7403 38.17C27.4136 38.6833 26.9703 39.0893 26.4103 39.388C25.8596 39.6867 25.2389 39.836 24.5483 39.836H21.5383V43H19.1583ZM21.4963 37.75H24.1283C24.4269 37.75 24.6976 37.694 24.9403 37.582C25.1829 37.47 25.3743 37.316 25.5143 37.12C25.6636 36.924 25.7383 36.7 25.7383 36.448C25.7383 36.2053 25.6636 36 25.5143 35.832C25.3743 35.664 25.1829 35.5333 24.9403 35.44C24.6976 35.3467 24.4269 35.3 24.1283 35.3H21.4963V37.75ZM32.1782 43V40.914H34.6142V35.286H32.1782V33.2H39.4442V35.286H36.9942V40.914H39.4442V43H32.1782ZM46.6884 43V35.3H42.9924V33.2H52.8344V35.3H49.0684V43H46.6884ZM61.0779 43.14C60.1912 43.14 59.3839 43.014 58.6559 42.762C57.9279 42.5007 57.2979 42.1413 56.7659 41.684C56.2339 41.2267 55.8186 40.69 55.5199 40.074C55.2306 39.458 55.0859 38.786 55.0859 38.058C55.0859 37.33 55.2306 36.658 55.5199 36.042C55.8186 35.426 56.2339 34.8893 56.7659 34.432C57.3072 33.9747 57.9372 33.62 58.6559 33.368C59.3839 33.1067 60.1866 32.976 61.0639 32.976C61.9319 32.976 62.7299 33.1067 63.4579 33.368C64.1859 33.62 64.8159 33.9793 65.3479 34.446C65.8799 34.9033 66.2906 35.44 66.5799 36.056C66.8786 36.672 67.0279 37.3393 67.0279 38.058C67.0279 38.7767 66.8786 39.444 66.5799 40.06C66.2906 40.676 65.8799 41.2173 65.3479 41.684C64.8159 42.1413 64.1859 42.5007 63.4579 42.762C62.7299 43.014 61.9366 43.14 61.0779 43.14ZM61.0639 40.9C61.5772 40.9 62.0532 40.83 62.4919 40.69C62.9306 40.5407 63.3039 40.34 63.6119 40.088C63.9292 39.8267 64.1719 39.5233 64.3399 39.178C64.5172 38.8327 64.6059 38.4593 64.6059 38.058C64.6059 37.6567 64.5172 37.2833 64.3399 36.938C64.1719 36.5927 63.9292 36.294 63.6119 36.042C63.3039 35.7807 62.9306 35.58 62.4919 35.44C62.0532 35.2907 61.5772 35.216 61.0639 35.216C60.5506 35.216 60.0746 35.2907 59.6359 35.44C59.2066 35.58 58.8286 35.7807 58.5019 36.042C58.1846 36.294 57.9419 36.5927 57.7739 36.938C57.6059 37.2833 57.5219 37.6567 57.5219 38.058C57.5219 38.4593 57.6059 38.8327 57.7739 39.178C57.9419 39.5233 58.1846 39.8267 58.5019 40.088C58.8286 40.34 59.2066 40.5407 59.6359 40.69C60.0746 40.83 60.5506 40.9 61.0639 40.9ZM6.17 61V51.2H8.55V61H6.17ZM7.15 57.36V55.372H13.688V57.36H7.15ZM7.304 53.3V51.2H14.262V53.3H7.304ZM18.2875 61V58.914H20.7235V53.286H18.2875V51.2H25.5535V53.286H23.1035V58.914H25.5535V61H18.2875ZM30.0958 61V51.2H32.3358L39.0418 58.2L38.6918 58.13C38.6358 57.7847 38.5938 57.4533 38.5658 57.136C38.5378 56.8187 38.5098 56.5153 38.4818 56.226C38.4631 55.9273 38.4491 55.638 38.4398 55.358C38.4304 55.078 38.4211 54.7933 38.4118 54.504C38.4118 54.2147 38.4118 53.9207 38.4118 53.622V51.2H40.7218V61H38.4538L31.5238 53.776L32.1258 53.874C32.1631 54.0793 32.1911 54.2847 32.2098 54.49C32.2284 54.6953 32.2518 54.91 32.2798 55.134C32.3078 55.358 32.3311 55.6007 32.3498 55.862C32.3778 56.1233 32.3918 56.408 32.3918 56.716C32.4011 57.024 32.4058 57.36 32.4058 57.724V61H30.0958ZM43.6385 61L48.3005 51.2H50.4985L55.1465 61H52.6965L50.0085 55.358C49.9152 55.1433 49.8218 54.9427 49.7285 54.756C49.6445 54.5693 49.5652 54.3873 49.4905 54.21C49.4252 54.0233 49.3598 53.8367 49.2945 53.65C49.2292 53.4633 49.1685 53.2767 49.1125 53.09L49.6305 53.076C49.5652 53.2813 49.4998 53.482 49.4345 53.678C49.3692 53.8647 49.2945 54.0513 49.2105 54.238C49.1265 54.4247 49.0425 54.6113 48.9585 54.798C48.8745 54.9753 48.7905 55.1667 48.7065 55.372L46.0325 61H43.6385ZM45.8085 59.236L46.5785 57.444H52.1785L52.5845 59.236H45.8085ZM58.0548 61V51.2H60.4348V58.9H66.3708V61H58.0548Z" fill="white"/>
</g>
<defs>
<filter id="filter0_d_109_106" x="0.742004" y="32.976" width="70.2859" height="36.024" filterUnits="userSpaceOnUse" color-interpolation-filters="sRGB">
<feFlood flood-opacity="0" result="BackgroundImageFix"/>
<feColorMatrix in="SourceAlpha" type="matrix" values="0 0 0 0 0 0 0 0 0 0 0 0 0 0 0 0 0 0 127 0" result="hardAlpha"/>
<feOffset dy="4"/>
<feGaussianBlur stdDeviation="2"/>
<feComposite in2="hardAlpha" operator="out"/>
<feColorMatrix type="matrix" values="0 0 0 0 0 0 0 0 0 0 0 0 0 0 0 0 0 0 0.25 0"/>
<feBlend mode="normal" in2="BackgroundImageFix" result="effect1_dropShadow_109_106"/>
<feBlend mode="normal" in="SourceGraphic" in2="effect1_dropShadow_109_106" result="shape"/>
</filter>
</defs>
</svg>
