<svg width="72" height="80" viewBox="0 0 72 80" fill="none" xmlns="http://www.w3.org/2000/svg">
<path d="M25.3425 72.9542L15.7319 63.3434C8.0363 55.648 8.0363 43.1709 15.7319 35.4756L49.9335 1.27405L65.3349 16.6755L34.6922 47.3183L25.3425 72.9542Z" fill="#76AA3E"/>
<path d="M15.7319 35.4756C8.0363 43.1713 8.0363 55.6481 15.7319 63.3434L20.5372 68.1488C12.8416 60.4533 12.8416 47.9763 20.5372 40.2809L54.7388 6.07939L49.9335 1.27423L15.7319 35.4756Z" fill="#C9E949"/>
<path d="M25.3425 45.0863C17.6469 52.7817 17.6469 65.2588 25.3425 72.9541C33.0381 80.6495 45.515 80.6495 53.2103 72.9541C60.9058 65.2585 60.9058 52.7816 53.2103 45.0863L49.7721 41.648L70.0397 21.3803L59.5438 10.8847L25.3425 45.0863Z" fill="#3A7633"/>
<path d="M30.148 49.8915C35.1814 44.8581 43.3717 44.8581 48.4052 49.8915C53.4386 54.925 53.4386 63.1153 48.4052 68.1487C43.3717 73.1822 35.1814 73.1822 30.148 68.1487C25.1144 63.1153 25.1144 54.9253 30.148 49.8915Z" fill="#C9E949"/>
<path d="M34.9406 68.1491C29.9072 63.1156 29.907 54.9253 34.9406 49.8917C36.8464 47.986 39.2048 46.8035 41.6728 46.3406C37.622 45.5813 33.2756 46.7641 30.1478 49.8917C25.1142 54.9253 25.1142 63.1155 30.1478 68.1491C33.2756 71.2769 37.622 72.4597 41.6728 71.7002C39.2048 71.2374 36.8464 70.0547 34.9406 68.1491Z" fill="#76AA3E"/>
<path d="M21.8441 41.5881L28.4189 35.0133L22.3069 28.9013L15.7321 35.4761L21.8441 41.5881Z" fill="#293133"/>
<path d="M29.242 48.9905C23.7116 54.5211 23.7116 63.5197 29.2419 69.05C31.917 71.725 35.4791 73.1983 39.2716 73.1983C43.0641 73.1983 46.6261 71.725 49.3011 69.05C51.9763 66.3749 53.4494 62.813 53.4494 59.0205C53.4494 55.2278 51.9763 51.666 49.3011 48.9908C46.626 46.3158 43.0641 44.8425 39.2714 44.8425C35.4791 44.8424 31.917 46.3155 29.242 48.9905ZM50.9013 59.0203C50.9013 62.1321 49.6931 65.0541 47.4992 67.2478C45.3053 69.4417 42.3836 70.6499 39.2716 70.6499C36.1595 70.6499 33.2377 69.4417 31.0439 67.2478C26.5072 62.7113 26.5072 55.3294 31.0439 50.7927C33.2378 48.5988 36.1595 47.3908 39.2714 47.3908C42.3835 47.3908 45.3052 48.5989 47.4991 50.7928C49.693 52.9864 50.9013 55.9085 50.9013 59.0203Z" fill="#26150C"/>
<path d="M70.936 20.4794L60.4402 9.98359L60.4399 9.98328L50.8294 0.373125C50.3317 -0.124375 49.5249 -0.124375 49.0275 0.373125L14.8258 34.5745C6.64596 42.7547 6.64596 56.0645 14.8258 64.2445L24.4364 73.8552C28.3991 77.8177 33.6675 80 39.2714 80C44.8752 80 50.1438 77.8177 54.1063 73.8553C62.2861 65.6752 62.2861 52.3655 54.1063 44.1853L51.5689 41.6481L70.9358 22.2819C71.4336 21.7839 71.4336 20.9772 70.936 20.4794ZM17.6797 35.325L22.3019 30.7027L26.6119 35.0127L21.8391 39.7856L17.5291 35.4756L17.6797 35.325ZM20.6092 49.5487C18.703 53.3822 17.93 57.7906 18.5231 62.0359C18.625 62.7656 18.7672 63.4898 18.9485 64.2039C18.9628 64.2614 18.9775 64.3187 18.9927 64.3762C19.0413 64.5616 19.0919 64.7464 19.1458 64.9306C19.1497 64.9442 19.1531 64.958 19.1571 64.9714L16.628 62.4423C9.74455 55.5589 9.45549 44.5412 15.7586 37.3094L20.938 42.4888C21.1867 42.7375 21.513 42.8619 21.8389 42.8619C22.1649 42.8619 22.4911 42.7375 22.7399 42.4888L29.3147 35.9138C29.5538 35.6747 29.688 35.3508 29.688 35.0127C29.688 34.6745 29.5536 34.3508 29.3147 34.1116L24.1038 28.9006L49.9285 3.07609L57.737 10.8848C55.5911 13.0308 53.4452 15.1767 51.2992 17.3227C46.8492 21.7727 42.3989 26.223 37.9489 30.673C34.1653 34.4566 30.3819 38.24 26.5983 42.0236C24.5697 44.0522 22.5606 46.0294 21.1344 48.5584C20.9506 48.8839 20.7755 49.2141 20.6092 49.5487ZM48.8663 40.747C48.6272 40.9861 48.493 41.31 48.493 41.6481C48.493 41.9863 48.6272 42.31 48.8663 42.5492L52.3045 45.9873C59.491 53.1738 59.491 64.8667 52.3045 72.0531C48.8233 75.5344 44.1949 77.4516 39.2716 77.4516C34.3481 77.4516 29.7197 75.5345 26.2386 72.0531C25.3402 71.1548 24.5542 70.1861 23.8806 69.1645C23.7122 68.9092 23.5508 68.6505 23.3964 68.3887C19.1785 61.2394 20.3761 51.8498 26.2386 45.9873L59.5392 12.6867L68.233 21.3806L48.8663 40.747Z" fill="#26150C"/>
<g filter="url(#filter0_d_109_106)">
<path d="M4.742 43L9.404 33.2H11.602L16.25 43H13.8L11.112 37.358C11.0187 37.1433 10.9253 36.9427 10.832 36.756C10.748 36.5693 10.6687 36.3873 10.594 36.21C10.5287 36.0233 10.4633 35.8367 10.398 35.65C10.3327 35.4633 10.272 35.2767 10.216 35.09L10.734 35.076C10.6687 35.2813 10.6033 35.482 10.538 35.678C10.4727 35.8647 10.398 36.0513 10.314 36.238C10.23 36.4247 10.146 36.6113 10.062 36.798C9.978 36.9753 9.894 37.1667 9.81 37.372L7.136 43H4.742ZM6.912 41.236L7.682 39.444H13.282L13.688 41.236H6.912ZM19.1583 43V33.2H24.7723C25.4256 33.2 26.0089 33.34 26.5223 33.62C27.0449 33.9 27.4603 34.2827 27.7683 34.768C28.0763 35.2533 28.2303 35.7993 28.2303 36.406C28.2303 37.0593 28.0669 37.6473 27.7403 38.17C27.4136 38.6833 26.9703 39.0893 26.4103 39.388C25.8596 39.6867 25.2389 39.836 24.5483 39.836H21.5383V43H19.1583ZM21.4963 37.75H24.1283C24.4269 37.75 24.6976 37.694 24.9403 37.582C25.1829 37.47 25.3743 37.316 25.5143 37.12C25.6636 36.924 25.7383 36.7 25.7383 36.448C25.7383 36.2053 25.6636 36 25.5143 35.832C25.3743 35.664 25.1829 35.5333 24.9403 35.44C24.6976 35.3467 24.4269 35.3 24.1283 35.3H21.4963V37.75ZM32.1782 43V40.914H34.6142V35.286H32.1782V33.2H39.4442V35.286H36.9942V40.914H39.4442V43H32.1782ZM46.6884 43V35.3H42.9924V33.2H52.8344V35.3H49.0684V43H46.6884ZM61.0779 43.14C60.1912 43.14 59.3839 43.014 58.6559 42.762C57.9279 42.5007 57.2979 42.1413 56.7659 41.684C56.2339 41.2267 55.8186 40.69 55.5199 40.074C55.2306 39.458 55.0859 38.786 55.0859 38.058C55.0859 37.33 55.2306 36.658 55.5199 36.042C55.8186 35.426 56.2339 34.8893 56.7659 34.432C57.3072 33.9747 57.9372 33.62 58.6559 33.368C59.3839 33.1067 60.1866 32.976 61.0639 32.976C61.9319 32.976 62.7299 33.1067 63.4579 33.368C64.1859 33.62 64.8159 33.9793 65.3479 34.446C65.8799 34.9033 66.2906 35.44 66.5799 36.056C66.8786 36.672 67.0279 37.3393 67.0279 38.058C67.0279 38.7767 66.8786 39.444 66.5799 40.06C66.2906 40.676 65.8799 41.2173 65.3479 41.684C64.8159 42.1413 64.1859 42.5007 63.4579 42.762C62.7299 43.014 61.9366 43.14 61.0779 43.14ZM61.0639 40.9C61.5772 40.9 62.0532 40.83 62.4919 40.69C62.9306 40.5407 63.3039 40.34 63.6119 40.088C63.9292 39.8267 64.1719 39.5233 64.3399 39.178C64.5172 38.8327 64.6059 38.4593 64.6059 38.058C64.6059 37.6567 64.5172 37.2833 64.3399 36.938C64.1719 36.5927 63.9292 36.294 63.6119 36.042C63.3039 35.7807 62.9306 35.58 62.4919 35.44C62.0532 35.2907 61.5772 35.216 61.0639 35.216C60.5506 35.216 60.0746 35.2907 59.6359 35.44C59.2066 35.58 58.8286 35.7807 58.5019 36.042C58.1846 36.294 57.9419 36.5927 57.7739 36.938C57.6059 37.2833 57.5219 37.6567 57.5219 38.058C57.5219 38.4593 57.6059 38.8327 57.7739 39.178C57.9419 39.5233 58.1846 39.8267 58.5019 40.088C58.8286 40.34 59.2066 40.5407 59.6359 40.69C60.0746 40.83 60.5506 40.9 61.0639 40.9ZM6.17 61V51.2H8.55V61H6.17ZM7.15 57.36V55.372H13.688V57.36H7.15ZM7.304 53.3V51.2H14.262V53.3H7.304ZM18.2875 61V58.914H20.7235V53.286H18.2875V51.2H25.5535V53.286H23.1035V58.914H25.5535V61H18.2875ZM30.0958 61V51.2H32.3358L39.0418 58.2L38.6918 58.13C38.6358 57.7847 38.5938 57.4533 38.5658 57.136C38.5378 56.8187 38.5098 56.5153 38.4818 56.226C38.4631 55.9273 38.4491 55.638 38.4398 55.358C38.4304 55.078 38.4211 54.7933 38.4118 54.504C38.4118 54.2147 38.4118 53.9207 38.4118 53.622V51.2H40.7218V61H38.4538L31.5238 53.776L32.1258 53.874C32.1631 54.0793 32.1911 54.2847 32.2098 54.49C32.2284 54.6953 32.2518 54.91 32.2798 55.134C32.3078 55.358 32.3311 55.6007 32.3498 55.862C32.3778 56.1233 32.3918 56.408 32.3918 56.716C32.4011 57.024 32.4058 57.36 32.4058 57.724V61H30.0958ZM43.6385 61L48.3005 51.2H50.4985L55.1465 61H52.6965L50.0085 55.358C49.9152 55.1433 49.8218 54.9427 49.7285 54.756C49.6445 54.5693 49.5652 54.3873 49.4905 54.21C49.4252 54.0233 49.3598 53.8367 49.2945 53.65C49.2292 53.4633 49.1685 53.2767 49.1125 53.09L49.6305 53.076C49.5652 53.2813 49.4998 53.482 49.4345 53.678C49.3692 53.8647 49.2945 54.0513 49.2105 54.238C49.1265 54.4247 49.0425 54.6113 48.9585 54.798C48.8745 54.9753 48.7905 55.1667 48.7065 55.372L46.0325 61H43.6385ZM45.8085 59.236L46.5785 57.444H52.1785L52.5845 59.236H45.8085ZM58.0548 61V51.2H60.4348V58.9H66.3708V61H58.0548Z" fill="white"/>
<path d="M4.742 43L3.83897 42.5704L3.1589 44H4.742V43ZM9.404 33.2V32.2H8.77233L8.50097 32.7704L9.404 33.2ZM11.602 33.2L12.5055 32.7715L12.2345 32.2H11.602V33.2ZM16.25 43V44H17.8311L17.1535 42.5715L16.25 43ZM13.8 43L12.8972 43.4301L13.1687 44H13.8V43ZM11.112 37.358L10.1949 37.7567L10.2018 37.7725L10.2092 37.7881L11.112 37.358ZM10.832 36.756L9.92008 37.1664L9.92845 37.185L9.93757 37.2032L10.832 36.756ZM10.594 36.21L9.65014 36.5404L9.66036 36.5695L9.67237 36.5981L10.594 36.21ZM10.398 35.65L11.3419 35.3196L11.3419 35.3196L10.398 35.65ZM10.216 35.09L10.189 34.0904L8.88267 34.1257L9.25817 35.3773L10.216 35.09ZM10.734 35.076L11.6869 35.3792L12.1136 34.0383L10.707 34.0764L10.734 35.076ZM10.538 35.678L11.4819 36.0084L11.4843 36.0013L11.4867 35.9942L10.538 35.678ZM10.314 36.238L11.2259 36.6484L11.2259 36.6484L10.314 36.238ZM10.062 36.798L10.9657 37.2261L10.9699 37.2173L10.9739 37.2084L10.062 36.798ZM9.81 37.372L10.7132 37.8011L10.7251 37.7762L10.7355 37.7506L9.81 37.372ZM7.136 43V44H7.76801L8.03923 43.4291L7.136 43ZM6.912 41.236L5.99323 40.8412L5.3939 42.236H6.912V41.236ZM7.682 39.444V38.444H7.02328L6.76323 39.0492L7.682 39.444ZM13.282 39.444L14.2573 39.223L14.0808 38.444H13.282V39.444ZM13.688 41.236V42.236H14.9399L14.6633 41.015L13.688 41.236ZM5.64503 43.4296L10.307 33.6296L8.50097 32.7704L3.83897 42.5704L5.64503 43.4296ZM9.404 34.2H11.602V32.2H9.404V34.2ZM10.6985 33.6285L15.3465 43.4285L17.1535 42.5715L12.5055 32.7715L10.6985 33.6285ZM16.25 42H13.8V44H16.25V42ZM14.7028 42.5699L12.0148 36.9279L10.2092 37.7881L12.8972 43.4301L14.7028 42.5699ZM12.0291 36.9593C11.9295 36.7302 11.8286 36.5132 11.7264 36.3088L9.93757 37.2032C10.022 37.3721 10.1079 37.5565 10.1949 37.7567L12.0291 36.9593ZM11.7439 36.3456C11.663 36.1659 11.587 35.9913 11.5156 35.8219L9.67237 36.5981C9.75037 36.7833 9.83296 36.9728 9.92008 37.1664L11.7439 36.3456ZM11.5379 35.8796C11.4725 35.693 11.4072 35.5063 11.3419 35.3196L9.45414 35.9803C9.51948 36.167 9.58481 36.3537 9.65014 36.5404L11.5379 35.8796ZM11.3419 35.3196C11.2814 35.147 11.2254 34.9747 11.1738 34.8027L9.25817 35.3773C9.31857 35.5787 9.3839 35.7797 9.45414 35.9804L11.3419 35.3196ZM10.243 36.0896L10.761 36.0756L10.707 34.0764L10.189 34.0904L10.243 36.0896ZM9.78107 34.7728C9.71707 34.974 9.65315 35.1703 9.58932 35.3618L11.4867 35.9942C11.5535 35.7937 11.6203 35.5887 11.6869 35.3792L9.78107 34.7728ZM9.59414 35.3476C9.53862 35.5063 9.4747 35.6663 9.40208 35.8276L11.2259 36.6484C11.3213 36.4364 11.4067 36.2231 11.4819 36.0084L9.59414 35.3476ZM9.40208 35.8276C9.31808 36.0143 9.23408 36.201 9.15008 36.3876L10.9739 37.2084C11.0579 37.0217 11.1419 36.835 11.2259 36.6484L9.40208 35.8276ZM9.15826 36.3699C9.06563 36.5655 8.97441 36.7735 8.88445 36.9934L10.7355 37.7506C10.8136 37.5599 10.8904 37.3852 10.9657 37.2261L9.15826 36.3699ZM8.90677 36.9429L6.23277 42.5709L8.03923 43.4291L10.7132 37.8011L8.90677 36.9429ZM7.136 42H4.742V44H7.136V42ZM7.83077 41.6308L8.60077 39.8388L6.76323 39.0492L5.99323 40.8412L7.83077 41.6308ZM7.682 40.444H13.282V38.444H7.682V40.444ZM12.3067 39.665L12.7127 41.457L14.6633 41.015L14.2573 39.223L12.3067 39.665ZM13.688 40.236H6.912V42.236H13.688V40.236ZM19.1583 43H18.1583V44H19.1583V43ZM19.1583 33.2V32.2H18.1583V33.2H19.1583ZM26.5223 33.62L26.0434 34.4979L26.0501 34.5015L26.5223 33.62ZM27.7683 34.768L26.924 35.3038L26.924 35.3038L27.7683 34.768ZM27.7403 38.17L28.584 38.7069L28.5883 38.7L27.7403 38.17ZM26.4103 39.388L25.9397 38.5056L25.9335 38.509L26.4103 39.388ZM21.5383 39.836V38.836H20.5383V39.836H21.5383ZM21.5383 43V44H22.5383V43H21.5383ZM21.4963 37.75H20.4963V38.75H21.4963V37.75ZM24.9403 37.582L24.5212 36.674L24.5212 36.674L24.9403 37.582ZM25.5143 37.12L24.7188 36.514L24.7095 36.5262L24.7005 36.5388L25.5143 37.12ZM25.5143 35.832L24.7461 36.4722L24.7563 36.4844L24.7669 36.4964L25.5143 35.832ZM24.9403 35.44L24.5813 36.3733L24.5813 36.3733L24.9403 35.44ZM21.4963 35.3V34.3H20.4963V35.3H21.4963ZM20.1583 43V33.2H18.1583V43H20.1583ZM19.1583 34.2H24.7723V32.2H19.1583V34.2ZM24.7723 34.2C25.2783 34.2 25.6936 34.3071 26.0434 34.4979L27.0011 32.7421C26.3243 32.3729 25.573 32.2 24.7723 32.2V34.2ZM26.0501 34.5015C26.426 34.7029 26.7112 34.9685 26.924 35.3038L28.6126 34.2322C28.2094 33.5968 27.6639 33.0971 26.9945 32.7385L26.0501 34.5015ZM26.924 35.3038C27.1245 35.6199 27.2303 35.9781 27.2303 36.406H29.2303C29.2303 35.6206 29.028 34.8868 28.6126 34.2322L26.924 35.3038ZM27.2303 36.406C27.2303 36.8837 27.1136 37.2859 26.8923 37.64L28.5883 38.7C29.0203 38.0087 29.2303 37.235 29.2303 36.406H27.2303ZM26.8966 37.6331C26.6665 37.9947 26.3545 38.2844 25.9397 38.5056L26.8809 40.2704C27.5861 39.8942 28.1607 39.372 28.5839 38.7069L26.8966 37.6331ZM25.9335 38.509C25.5438 38.7203 25.0899 38.836 24.5483 38.836V40.836C25.388 40.836 26.1754 40.653 26.887 40.267L25.9335 38.509ZM24.5483 38.836H21.5383V40.836H24.5483V38.836ZM20.5383 39.836V43H22.5383V39.836H20.5383ZM21.5383 42H19.1583V44H21.5383V42ZM21.4963 38.75H24.1283V36.75H21.4963V38.75ZM24.1283 38.75C24.5546 38.75 24.9706 38.6694 25.3593 38.49L24.5212 36.674C24.4246 36.7186 24.2993 36.75 24.1283 36.75V38.75ZM25.3593 38.49C25.742 38.3133 26.0763 38.0536 26.328 37.7012L24.7005 36.5388C24.6723 36.5784 24.6239 36.6267 24.5212 36.674L25.3593 38.49ZM26.3097 37.726C26.595 37.3517 26.7383 36.9136 26.7383 36.448H24.7383C24.7383 36.4738 24.7347 36.4854 24.7336 36.4888C24.7326 36.4919 24.7298 36.4996 24.7188 36.514L26.3097 37.726ZM26.7383 36.448C26.7383 35.9816 26.5873 35.5339 26.2617 35.1676L24.7669 36.4964C24.7643 36.4934 24.7598 36.4878 24.7548 36.4795C24.7498 36.4711 24.7456 36.4623 24.7425 36.4537C24.7358 36.4354 24.7383 36.4304 24.7383 36.448H26.7383ZM26.2825 35.1918C26.0144 34.8701 25.671 34.6496 25.2993 34.5067L24.5813 36.3733C24.6949 36.417 24.7342 36.4579 24.7461 36.4722L26.2825 35.1918ZM25.2993 34.5067C24.9263 34.3632 24.5317 34.3 24.1283 34.3V36.3C24.3222 36.3 24.4689 36.3301 24.5813 36.3733L25.2993 34.5067ZM24.1283 34.3H21.4963V36.3H24.1283V34.3ZM20.4963 35.3V37.75H22.4963V35.3H20.4963ZM32.1782 43H31.1782V44H32.1782V43ZM32.1782 40.914V39.914H31.1782V40.914H32.1782ZM34.6142 40.914V41.914H35.6142V40.914H34.6142ZM34.6142 35.286H35.6142V34.286H34.6142V35.286ZM32.1782 35.286H31.1782V36.286H32.1782V35.286ZM32.1782 33.2V32.2H31.1782V33.2H32.1782ZM39.4442 33.2H40.4442V32.2H39.4442V33.2ZM39.4442 35.286V36.286H40.4442V35.286H39.4442ZM36.9942 35.286V34.286H35.9942V35.286H36.9942ZM36.9942 40.914H35.9942V41.914H36.9942V40.914ZM39.4442 40.914H40.4442V39.914H39.4442V40.914ZM39.4442 43V44H40.4442V43H39.4442ZM33.1782 43V40.914H31.1782V43H33.1782ZM32.1782 41.914H34.6142V39.914H32.1782V41.914ZM35.6142 40.914V35.286H33.6142V40.914H35.6142ZM34.6142 34.286H32.1782V36.286H34.6142V34.286ZM33.1782 35.286V33.2H31.1782V35.286H33.1782ZM32.1782 34.2H39.4442V32.2H32.1782V34.2ZM38.4442 33.2V35.286H40.4442V33.2H38.4442ZM39.4442 34.286H36.9942V36.286H39.4442V34.286ZM35.9942 35.286V40.914H37.9942V35.286H35.9942ZM36.9942 41.914H39.4442V39.914H36.9942V41.914ZM38.4442 40.914V43H40.4442V40.914H38.4442ZM39.4442 42H32.1782V44H39.4442V42ZM46.6884 43H45.6884V44H46.6884V43ZM46.6884 35.3H47.6884V34.3H46.6884V35.3ZM42.9924 35.3H41.9924V36.3H42.9924V35.3ZM42.9924 33.2V32.2H41.9924V33.2H42.9924ZM52.8344 33.2H53.8344V32.2H52.8344V33.2ZM52.8344 35.3V36.3H53.8344V35.3H52.8344ZM49.0684 35.3V34.3H48.0684V35.3H49.0684ZM49.0684 43V44H50.0684V43H49.0684ZM47.6884 43V35.3H45.6884V43H47.6884ZM46.6884 34.3H42.9924V36.3H46.6884V34.3ZM43.9924 35.3V33.2H41.9924V35.3H43.9924ZM42.9924 34.2H52.8344V32.2H42.9924V34.2ZM51.8344 33.2V35.3H53.8344V33.2H51.8344ZM52.8344 34.3H49.0684V36.3H52.8344V34.3ZM48.0684 35.3V43H50.0684V35.3H48.0684ZM49.0684 42H46.6884V44H49.0684V42ZM58.6559 42.762L58.318 43.7033L58.3288 43.707L58.6559 42.762ZM56.7659 41.684L57.4178 40.9257L57.4178 40.9257L56.7659 41.684ZM55.5199 40.074L54.6147 40.4992L54.6201 40.5103L55.5199 40.074ZM55.5199 36.042L54.62 35.6057L54.6148 35.6169L55.5199 36.042ZM56.7659 34.432L56.1205 33.6681L56.114 33.6737L56.7659 34.432ZM58.6559 33.368L58.9868 34.3117L58.9938 34.3092L58.6559 33.368ZM63.4579 33.368L63.12 34.3093L63.1308 34.313L63.4579 33.368ZM65.3479 34.446L64.6884 35.1978L64.696 35.2043L65.3479 34.446ZM66.5799 36.056L65.6747 36.4812L65.6801 36.4923L66.5799 36.056ZM66.5799 40.06L65.68 39.6237L65.6748 39.6349L66.5799 40.06ZM65.3479 41.684L65.9998 42.4424L66.0073 42.4358L65.3479 41.684ZM63.4579 42.762L63.785 43.707L63.7958 43.7032L63.4579 42.762ZM62.4919 40.69L62.7959 41.6427L62.8051 41.6397L62.8142 41.6366L62.4919 40.69ZM63.6119 40.088L64.2451 40.862L64.2476 40.8599L63.6119 40.088ZM64.3399 39.178L63.4503 38.7212L63.4454 38.7308L63.4407 38.7405L64.3399 39.178ZM64.3399 36.938L63.4407 37.3755L63.4454 37.3852L63.4503 37.3948L64.3399 36.938ZM63.6119 36.042L62.9649 36.8045L62.9773 36.815L62.99 36.8251L63.6119 36.042ZM62.4919 35.44L62.1696 36.3866L62.1787 36.3897L62.1879 36.3927L62.4919 35.44ZM59.6359 35.44L59.9459 36.3908L59.9582 36.3866L59.6359 35.44ZM58.5019 36.042L59.1238 36.8251L59.1266 36.8229L58.5019 36.042ZM57.7739 36.938L58.6731 37.3755L58.6731 37.3755L57.7739 36.938ZM57.7739 39.178L58.6731 38.7405L58.6731 38.7405L57.7739 39.178ZM58.5019 40.088L57.8662 40.8599L57.8785 40.8701L57.8911 40.8798L58.5019 40.088ZM59.6359 40.69L59.3074 41.6345L59.3196 41.6387L59.3319 41.6427L59.6359 40.69ZM61.0779 42.14C60.286 42.14 59.5912 42.0276 58.983 41.817L58.3288 43.707C59.1765 44.0004 60.0964 44.14 61.0779 44.14V42.14ZM58.9938 41.8208C58.3689 41.5965 57.8481 41.2956 57.4178 40.9257L56.114 42.4423C56.7477 42.987 57.4868 43.4048 58.318 43.7032L58.9938 41.8208ZM57.4178 40.9257C56.987 40.5553 56.6571 40.1274 56.4197 39.6377L54.6201 40.5103C54.98 41.2526 55.4808 41.898 56.114 42.4423L57.4178 40.9257ZM56.425 39.6489C56.2025 39.175 56.0859 38.6495 56.0859 38.058H54.0859C54.0859 38.9225 54.2587 39.741 54.6148 40.4991L56.425 39.6489ZM56.0859 38.058C56.0859 37.4665 56.2025 36.941 56.425 36.4671L54.6148 35.6169C54.2587 36.375 54.0859 37.1935 54.0859 38.058H56.0859ZM56.4197 36.4783C56.6571 35.9886 56.987 35.5607 57.4178 35.1903L56.114 33.6737C55.4808 34.218 54.98 34.8634 54.6201 35.6057L56.4197 36.4783ZM57.4112 35.1959C57.8528 34.8228 58.3744 34.5264 58.9868 34.3117L58.325 32.4243C57.5001 32.7136 56.7616 33.1265 56.1205 33.6681L57.4112 35.1959ZM58.9938 34.3092C59.5999 34.0916 60.2864 33.976 61.0639 33.976V31.976C60.0867 31.976 59.1679 32.1217 58.318 32.4268L58.9938 34.3092ZM61.0639 33.976C61.8307 33.976 62.5128 34.0912 63.12 34.3092L63.7958 32.4268C62.947 32.1221 62.0331 31.976 61.0639 31.976V33.976ZM63.1308 34.313C63.7474 34.5264 64.262 34.8237 64.6885 35.1978L66.0073 33.6942C65.3698 33.135 64.6243 32.7136 63.785 32.423L63.1308 34.313ZM64.696 35.2043C65.1244 35.5726 65.4473 35.9968 65.6748 36.4811L67.485 35.6309C67.1338 34.8832 66.6354 34.2341 65.9998 33.6877L64.696 35.2043ZM65.6801 36.4923C65.9095 36.9655 66.0279 37.4827 66.0279 38.058H68.0279C68.0279 37.1959 67.8476 36.3785 67.4797 35.6197L65.6801 36.4923ZM66.0279 38.058C66.0279 38.6333 65.9095 39.1505 65.6801 39.6237L67.4797 40.4963C67.8476 39.7375 68.0279 38.9201 68.0279 38.058H66.0279ZM65.6748 39.6349C65.4463 40.1213 65.1212 40.5527 64.6885 40.9322L66.0073 42.4358C66.6386 41.882 67.1348 41.2307 67.485 40.4851L65.6748 39.6349ZM64.696 40.9257C64.2657 41.2956 63.7448 41.5965 63.12 41.8208L63.7958 43.7032C64.6269 43.4048 65.3661 42.987 65.9998 42.4423L64.696 40.9257ZM63.1308 41.817C62.5193 42.0287 61.8379 42.14 61.0779 42.14V44.14C62.0352 44.14 62.9405 43.9993 63.785 43.707L63.1308 41.817ZM61.0639 41.9C61.6687 41.9 62.2484 41.8174 62.7959 41.6427L62.1879 39.7373C61.8581 39.8426 61.4858 39.9 61.0639 39.9V41.9ZM62.8142 41.6366C63.3477 41.455 63.8308 41.201 64.2451 40.862L62.9787 39.314C62.777 39.479 62.5134 39.6263 62.1696 39.7434L62.8142 41.6366ZM64.2476 40.8599C64.6678 40.5139 65.004 40.0989 65.2391 39.6155L63.4407 38.7405C63.3398 38.9478 63.1906 39.1395 62.9762 39.3161L64.2476 40.8599ZM65.2295 39.6348C65.4819 39.1433 65.6059 38.6127 65.6059 38.058H63.6059C63.6059 38.306 63.5526 38.5221 63.4503 38.7212L65.2295 39.6348ZM65.6059 38.058C65.6059 37.5033 65.4819 36.9727 65.2295 36.4812L63.4503 37.3948C63.5526 37.5939 63.6059 37.81 63.6059 38.058H65.6059ZM65.2391 36.5005C65.0021 36.0133 64.6616 35.5987 64.2338 35.2589L62.99 36.8251C63.1968 36.9893 63.3417 37.172 63.4407 37.3755L65.2391 36.5005ZM64.2589 35.2795C63.8371 34.9216 63.3428 34.6619 62.7959 34.4873L62.1879 36.3927C62.5183 36.4981 62.7707 36.6397 62.9649 36.8045L64.2589 35.2795ZM62.8142 34.4934C62.2612 34.3051 61.6751 34.216 61.0639 34.216V36.216C61.4793 36.216 61.8453 36.2762 62.1696 36.3866L62.8142 34.4934ZM61.0639 34.216C60.4527 34.216 59.8666 34.3051 59.3136 34.4933L59.9582 36.3866C60.2825 36.2762 60.6484 36.216 61.0639 36.216V34.216ZM59.3259 34.4893C58.7914 34.6636 58.3049 34.919 57.8772 35.2611L59.1266 36.8229C59.3522 36.6424 59.6217 36.4964 59.9459 36.3907L59.3259 34.4893ZM57.88 35.2589C57.4522 35.5987 57.1117 36.0133 56.8747 36.5005L58.6731 37.3755C58.7721 37.172 58.917 36.9893 59.1238 36.8251L57.88 35.2589ZM56.8747 36.5005C56.6373 36.9883 56.5219 37.5121 56.5219 38.058H58.5219C58.5219 37.8012 58.5744 37.5783 58.6731 37.3755L56.8747 36.5005ZM56.5219 38.058C56.5219 38.6039 56.6373 39.1277 56.8747 39.6155L58.6731 38.7405C58.5744 38.5377 58.5219 38.3148 58.5219 38.058H56.5219ZM56.8747 39.6155C57.1098 40.0989 57.446 40.5139 57.8662 40.8599L59.1376 39.3161C58.9232 39.1395 58.774 38.9478 58.6731 38.7405L56.8747 39.6155ZM57.8911 40.8798C58.3112 41.2039 58.7866 41.4534 59.3074 41.6345L59.9644 39.7455C59.6265 39.628 59.3459 39.4761 59.1127 39.2962L57.8911 40.8798ZM59.3319 41.6427C59.8794 41.8174 60.4591 41.9 61.0639 41.9V39.9C60.642 39.9 60.2697 39.8426 59.9399 39.7373L59.3319 41.6427ZM6.17 61H5.17V62H6.17V61ZM6.17 51.2V50.2H5.17V51.2H6.17ZM8.55 51.2H9.55V50.2H8.55V51.2ZM8.55 61V62H9.55V61H8.55ZM7.15 57.36H6.15V58.36H7.15V57.36ZM7.15 55.372V54.372H6.15V55.372H7.15ZM13.688 55.372H14.688V54.372H13.688V55.372ZM13.688 57.36V58.36H14.688V57.36H13.688ZM7.304 53.3H6.304V54.3H7.304V53.3ZM7.304 51.2V50.2H6.304V51.2H7.304ZM14.262 51.2H15.262V50.2H14.262V51.2ZM14.262 53.3V54.3H15.262V53.3H14.262ZM7.17 61V51.2H5.17V61H7.17ZM6.17 52.2H8.55V50.2H6.17V52.2ZM7.55 51.2V61H9.55V51.2H7.55ZM8.55 60H6.17V62H8.55V60ZM8.15 57.36V55.372H6.15V57.36H8.15ZM7.15 56.372H13.688V54.372H7.15V56.372ZM12.688 55.372V57.36H14.688V55.372H12.688ZM13.688 56.36H7.15V58.36H13.688V56.36ZM8.304 53.3V51.2H6.304V53.3H8.304ZM7.304 52.2H14.262V50.2H7.304V52.2ZM13.262 51.2V53.3H15.262V51.2H13.262ZM14.262 52.3H7.304V54.3H14.262V52.3ZM18.2875 61H17.2875V62H18.2875V61ZM18.2875 58.914V57.914H17.2875V58.914H18.2875ZM20.7235 58.914V59.914H21.7235V58.914H20.7235ZM20.7235 53.286H21.7235V52.286H20.7235V53.286ZM18.2875 53.286H17.2875V54.286H18.2875V53.286ZM18.2875 51.2V50.2H17.2875V51.2H18.2875ZM25.5535 51.2H26.5535V50.2H25.5535V51.2ZM25.5535 53.286V54.286H26.5535V53.286H25.5535ZM23.1035 53.286V52.286H22.1035V53.286H23.1035ZM23.1035 58.914H22.1035V59.914H23.1035V58.914ZM25.5535 58.914H26.5535V57.914H25.5535V58.914ZM25.5535 61V62H26.5535V61H25.5535ZM19.2875 61V58.914H17.2875V61H19.2875ZM18.2875 59.914H20.7235V57.914H18.2875V59.914ZM21.7235 58.914V53.286H19.7235V58.914H21.7235ZM20.7235 52.286H18.2875V54.286H20.7235V52.286ZM19.2875 53.286V51.2H17.2875V53.286H19.2875ZM18.2875 52.2H25.5535V50.2H18.2875V52.2ZM24.5535 51.2V53.286H26.5535V51.2H24.5535ZM25.5535 52.286H23.1035V54.286H25.5535V52.286ZM22.1035 53.286V58.914H24.1035V53.286H22.1035ZM23.1035 59.914H25.5535V57.914H23.1035V59.914ZM24.5535 58.914V61H26.5535V58.914H24.5535ZM25.5535 60H18.2875V62H25.5535V60ZM30.0958 61H29.0958V62H30.0958V61ZM30.0958 51.2V50.2H29.0958V51.2H30.0958ZM32.3358 51.2L33.0579 50.5082L32.7626 50.2H32.3358V51.2ZM39.0418 58.2L38.8457 59.1806L41.9634 59.8041L39.7639 57.5082L39.0418 58.2ZM38.6918 58.13L37.7047 58.2901L37.8157 58.9746L38.4957 59.1106L38.6918 58.13ZM38.5658 57.136L39.5619 57.0481L39.5619 57.0481L38.5658 57.136ZM38.4818 56.226L37.4837 56.2884L37.4848 56.3054L37.4864 56.3223L38.4818 56.226ZM38.4118 54.504H37.4118V54.5201L37.4123 54.5362L38.4118 54.504ZM38.4118 51.2V50.2H37.4118V51.2H38.4118ZM40.7218 51.2H41.7218V50.2H40.7218V51.2ZM40.7218 61V62H41.7218V61H40.7218ZM38.4538 61L37.7321 61.6923L38.0273 62H38.4538V61ZM31.5238 53.776L31.6845 52.789L28.7298 52.308L30.8021 54.4683L31.5238 53.776ZM32.1258 53.874L33.1097 53.6951L32.9833 53.0004L32.2865 52.887L32.1258 53.874ZM32.2098 54.49L33.2057 54.3995L33.2057 54.3995L32.2098 54.49ZM32.2798 55.134L33.2721 55.01L33.2721 55.01L32.2798 55.134ZM32.3498 55.862L31.3523 55.9332L31.3536 55.9509L31.3555 55.9685L32.3498 55.862ZM32.3918 56.716H31.3918V56.7311L31.3922 56.7463L32.3918 56.716ZM32.4058 61V62H33.4058V61H32.4058ZM31.0958 61V51.2H29.0958V61H31.0958ZM30.0958 52.2H32.3358V50.2H30.0958V52.2ZM31.6137 51.8918L38.3197 58.8918L39.7639 57.5082L33.0579 50.5082L31.6137 51.8918ZM39.2379 57.2194L38.8879 57.1494L38.4957 59.1106L38.8457 59.1806L39.2379 57.2194ZM39.6789 57.9699C39.6264 57.6462 39.5876 57.3391 39.5619 57.0481L37.5697 57.2239C37.6 57.5676 37.6452 57.9231 37.7047 58.2901L39.6789 57.9699ZM39.5619 57.0481C39.5337 56.7282 39.5054 56.4221 39.4771 56.1297L37.4864 56.3223C37.5141 56.6086 37.5419 56.9091 37.5697 57.2239L39.5619 57.0481ZM39.4798 56.1636C39.4617 55.874 39.4482 55.5944 39.4392 55.3247L37.4403 55.3913C37.45 55.6816 37.4645 55.9807 37.4837 56.2884L39.4798 56.1636ZM39.4392 55.3247C39.4299 55.0451 39.4206 54.7607 39.4113 54.4718L37.4123 54.5362C37.4216 54.8259 37.431 55.1109 37.4403 55.3913L39.4392 55.3247ZM39.4118 54.504C39.4118 54.5034 39.4118 54.5029 39.4118 54.5023C39.4118 54.5017 39.4118 54.5012 39.4118 54.5006C39.4118 54.5 39.4118 54.4995 39.4118 54.4989C39.4118 54.4983 39.4118 54.4978 39.4118 54.4972C39.4118 54.4967 39.4118 54.4961 39.4118 54.4955C39.4118 54.495 39.4118 54.4944 39.4118 54.4938C39.4118 54.4933 39.4118 54.4927 39.4118 54.4921C39.4118 54.4916 39.4118 54.491 39.4118 54.4904C39.4118 54.4899 39.4118 54.4893 39.4118 54.4887C39.4118 54.4882 39.4118 54.4876 39.4118 54.487C39.4118 54.4865 39.4118 54.4859 39.4118 54.4853C39.4118 54.4848 39.4118 54.4842 39.4118 54.4836C39.4118 54.4831 39.4118 54.4825 39.4118 54.482C39.4118 54.4814 39.4118 54.4808 39.4118 54.4803C39.4118 54.4797 39.4118 54.4791 39.4118 54.4786C39.4118 54.478 39.4118 54.4774 39.4118 54.4769C39.4118 54.4763 39.4118 54.4757 39.4118 54.4752C39.4118 54.4746 39.4118 54.474 39.4118 54.4735C39.4118 54.4729 39.4118 54.4723 39.4118 54.4718C39.4118 54.4712 39.4118 54.4706 39.4118 54.4701C39.4118 54.4695 39.4118 54.4689 39.4118 54.4684C39.4118 54.4678 39.4118 54.4672 39.4118 54.4667C39.4118 54.4661 39.4118 54.4655 39.4118 54.465C39.4118 54.4644 39.4118 54.4638 39.4118 54.4633C39.4118 54.4627 39.4118 54.4621 39.4118 54.4616C39.4118 54.461 39.4118 54.4605 39.4118 54.4599C39.4118 54.4593 39.4118 54.4588 39.4118 54.4582C39.4118 54.4576 39.4118 54.4571 39.4118 54.4565C39.4118 54.4559 39.4118 54.4554 39.4118 54.4548C39.4118 54.4542 39.4118 54.4537 39.4118 54.4531C39.4118 54.4525 39.4118 54.452 39.4118 54.4514C39.4118 54.4508 39.4118 54.4503 39.4118 54.4497C39.4118 54.4491 39.4118 54.4486 39.4118 54.448C39.4118 54.4474 39.4118 54.4469 39.4118 54.4463C39.4118 54.4457 39.4118 54.4452 39.4118 54.4446C39.4118 54.444 39.4118 54.4435 39.4118 54.4429C39.4118 54.4423 39.4118 54.4418 39.4118 54.4412C39.4118 54.4406 39.4118 54.4401 39.4118 54.4395C39.4118 54.4389 39.4118 54.4384 39.4118 54.4378C39.4118 54.4372 39.4118 54.4367 39.4118 54.4361C39.4118 54.4355 39.4118 54.435 39.4118 54.4344C39.4118 54.4338 39.4118 54.4333 39.4118 54.4327C39.4118 54.4321 39.4118 54.4316 39.4118 54.431C39.4118 54.4304 39.4118 54.4299 39.4118 54.4293C39.4118 54.4287 39.4118 54.4282 39.4118 54.4276C39.4118 54.427 39.4118 54.4265 39.4118 54.4259C39.4118 54.4253 39.4118 54.4248 39.4118 54.4242C39.4118 54.4236 39.4118 54.4231 39.4118 54.4225C39.4118 54.4219 39.4118 54.4214 39.4118 54.4208C39.4118 54.4202 39.4118 54.4197 39.4118 54.4191C39.4118 54.4185 39.4118 54.418 39.4118 54.4174C39.4118 54.4168 39.4118 54.4163 39.4118 54.4157C39.4118 54.4151 39.4118 54.4146 39.4118 54.414C39.4118 54.4134 39.4118 54.4129 39.4118 54.4123C39.4118 54.4117 39.4118 54.4112 39.4118 54.4106C39.4118 54.41 39.4118 54.4095 39.4118 54.4089C39.4118 54.4083 39.4118 54.4078 39.4118 54.4072C39.4118 54.4066 39.4118 54.4061 39.4118 54.4055C39.4118 54.4049 39.4118 54.4044 39.4118 54.4038C39.4118 54.4032 39.4118 54.4027 39.4118 54.4021C39.4118 54.4015 39.4118 54.401 39.4118 54.4004C39.4118 54.3998 39.4118 54.3993 39.4118 54.3987C39.4118 54.3981 39.4118 54.3976 39.4118 54.397C39.4118 54.3964 39.4118 54.3958 39.4118 54.3953C39.4118 54.3947 39.4118 54.3941 39.4118 54.3936C39.4118 54.393 39.4118 54.3924 39.4118 54.3919C39.4118 54.3913 39.4118 54.3907 39.4118 54.3902C39.4118 54.3896 39.4118 54.389 39.4118 54.3885C39.4118 54.3879 39.4118 54.3873 39.4118 54.3868C39.4118 54.3862 39.4118 54.3856 39.4118 54.3851C39.4118 54.3845 39.4118 54.3839 39.4118 54.3834C39.4118 54.3828 39.4118 54.3822 39.4118 54.3817C39.4118 54.3811 39.4118 54.3805 39.4118 54.38C39.4118 54.3794 39.4118 54.3788 39.4118 54.3783C39.4118 54.3777 39.4118 54.3771 39.4118 54.3766C39.4118 54.376 39.4118 54.3754 39.4118 54.3748C39.4118 54.3743 39.4118 54.3737 39.4118 54.3731C39.4118 54.3726 39.4118 54.372 39.4118 54.3714C39.4118 54.3709 39.4118 54.3703 39.4118 54.3697C39.4118 54.3692 39.4118 54.3686 39.4118 54.368C39.4118 54.3675 39.4118 54.3669 39.4118 54.3663C39.4118 54.3658 39.4118 54.3652 39.4118 54.3646C39.4118 54.3641 39.4118 54.3635 39.4118 54.3629C39.4118 54.3624 39.4118 54.3618 39.4118 54.3612C39.4118 54.3606 39.4118 54.3601 39.4118 54.3595C39.4118 54.3589 39.4118 54.3584 39.4118 54.3578C39.4118 54.3572 39.4118 54.3567 39.4118 54.3561C39.4118 54.3555 39.4118 54.355 39.4118 54.3544C39.4118 54.3538 39.4118 54.3533 39.4118 54.3527C39.4118 54.3521 39.4118 54.3516 39.4118 54.351C39.4118 54.3504 39.4118 54.3499 39.4118 54.3493C39.4118 54.3487 39.4118 54.3481 39.4118 54.3476C39.4118 54.347 39.4118 54.3464 39.4118 54.3459C39.4118 54.3453 39.4118 54.3447 39.4118 54.3442C39.4118 54.3436 39.4118 54.343 39.4118 54.3425C39.4118 54.3419 39.4118 54.3413 39.4118 54.3408C39.4118 54.3402 39.4118 54.3396 39.4118 54.3391C39.4118 54.3385 39.4118 54.3379 39.4118 54.3373C39.4118 54.3368 39.4118 54.3362 39.4118 54.3356C39.4118 54.3351 39.4118 54.3345 39.4118 54.3339C39.4118 54.3334 39.4118 54.3328 39.4118 54.3322C39.4118 54.3317 39.4118 54.3311 39.4118 54.3305C39.4118 54.33 39.4118 54.3294 39.4118 54.3288C39.4118 54.3282 39.4118 54.3277 39.4118 54.3271C39.4118 54.3265 39.4118 54.326 39.4118 54.3254C39.4118 54.3248 39.4118 54.3243 39.4118 54.3237C39.4118 54.3231 39.4118 54.3226 39.4118 54.322C39.4118 54.3214 39.4118 54.3209 39.4118 54.3203C39.4118 54.3197 39.4118 54.3191 39.4118 54.3186C39.4118 54.318 39.4118 54.3174 39.4118 54.3169C39.4118 54.3163 39.4118 54.3157 39.4118 54.3152C39.4118 54.3146 39.4118 54.314 39.4118 54.3135C39.4118 54.3129 39.4118 54.3123 39.4118 54.3117C39.4118 54.3112 39.4118 54.3106 39.4118 54.31C39.4118 54.3095 39.4118 54.3089 39.4118 54.3083C39.4118 54.3078 39.4118 54.3072 39.4118 54.3066C39.4118 54.3061 39.4118 54.3055 39.4118 54.3049C39.4118 54.3043 39.4118 54.3038 39.4118 54.3032C39.4118 54.3026 39.4118 54.3021 39.4118 54.3015C39.4118 54.3009 39.4118 54.3004 39.4118 54.2998C39.4118 54.2992 39.4118 54.2987 39.4118 54.2981C39.4118 54.2975 39.4118 54.2969 39.4118 54.2964C39.4118 54.2958 39.4118 54.2952 39.4118 54.2947C39.4118 54.2941 39.4118 54.2935 39.4118 54.293C39.4118 54.2924 39.4118 54.2918 39.4118 54.2913C39.4118 54.2907 39.4118 54.2901 39.4118 54.2895C39.4118 54.289 39.4118 54.2884 39.4118 54.2878C39.4118 54.2873 39.4118 54.2867 39.4118 54.2861C39.4118 54.2856 39.4118 54.285 39.4118 54.2844C39.4118 54.2838 39.4118 54.2833 39.4118 54.2827C39.4118 54.2821 39.4118 54.2816 39.4118 54.281C39.4118 54.2804 39.4118 54.2799 39.4118 54.2793C39.4118 54.2787 39.4118 54.2781 39.4118 54.2776C39.4118 54.277 39.4118 54.2764 39.4118 54.2759C39.4118 54.2753 39.4118 54.2747 39.4118 54.2742C39.4118 54.2736 39.4118 54.273 39.4118 54.2724C39.4118 54.2719 39.4118 54.2713 39.4118 54.2707C39.4118 54.2702 39.4118 54.2696 39.4118 54.269C39.4118 54.2685 39.4118 54.2679 39.4118 54.2673C39.4118 54.2667 39.4118 54.2662 39.4118 54.2656C39.4118 54.265 39.4118 54.2645 39.4118 54.2639C39.4118 54.2633 39.4118 54.2628 39.4118 54.2622C39.4118 54.2616 39.4118 54.261 39.4118 54.2605C39.4118 54.2599 39.4118 54.2593 39.4118 54.2588C39.4118 54.2582 39.4118 54.2576 39.4118 54.2571C39.4118 54.2565 39.4118 54.2559 39.4118 54.2553C39.4118 54.2548 39.4118 54.2542 39.4118 54.2536C39.4118 54.2531 39.4118 54.2525 39.4118 54.2519C39.4118 54.2514 39.4118 54.2508 39.4118 54.2502C39.4118 54.2496 39.4118 54.2491 39.4118 54.2485C39.4118 54.2479 39.4118 54.2474 39.4118 54.2468C39.4118 54.2462 39.4118 54.2456 39.4118 54.2451C39.4118 54.2445 39.4118 54.2439 39.4118 54.2434C39.4118 54.2428 39.4118 54.2422 39.4118 54.2417C39.4118 54.2411 39.4118 54.2405 39.4118 54.2399C39.4118 54.2394 39.4118 54.2388 39.4118 54.2382C39.4118 54.2377 39.4118 54.2371 39.4118 54.2365C39.4118 54.2359 39.4118 54.2354 39.4118 54.2348C39.4118 54.2342 39.4118 54.2337 39.4118 54.2331C39.4118 54.2325 39.4118 54.232 39.4118 54.2314C39.4118 54.2308 39.4118 54.2302 39.4118 54.2297C39.4118 54.2291 39.4118 54.2285 39.4118 54.228C39.4118 54.2274 39.4118 54.2268 39.4118 54.2262C39.4118 54.2257 39.4118 54.2251 39.4118 54.2245C39.4118 54.224 39.4118 54.2234 39.4118 54.2228C39.4118 54.2222 39.4118 54.2217 39.4118 54.2211C39.4118 54.2205 39.4118 54.22 39.4118 54.2194C39.4118 54.2188 39.4118 54.2183 39.4118 54.2177C39.4118 54.2171 39.4118 54.2165 39.4118 54.216C39.4118 54.2154 39.4118 54.2148 39.4118 54.2143C39.4118 54.2137 39.4118 54.2131 39.4118 54.2125C39.4118 54.212 39.4118 54.2114 39.4118 54.2108C39.4118 54.2103 39.4118 54.2097 39.4118 54.2091C39.4118 54.2085 39.4118 54.208 39.4118 54.2074C39.4118 54.2068 39.4118 54.2063 39.4118 54.2057C39.4118 54.2051 39.4118 54.2045 39.4118 54.204C39.4118 54.2034 39.4118 54.2028 39.4118 54.2023C39.4118 54.2017 39.4118 54.2011 39.4118 54.2005C39.4118 54.2 39.4118 54.1994 39.4118 54.1988C39.4118 54.1983 39.4118 54.1977 39.4118 54.1971C39.4118 54.1965 39.4118 54.196 39.4118 54.1954C39.4118 54.1948 39.4118 54.1943 39.4118 54.1937C39.4118 54.1931 39.4118 54.1925 39.4118 54.192C39.4118 54.1914 39.4118 54.1908 39.4118 54.1903C39.4118 54.1897 39.4118 54.1891 39.4118 54.1885C39.4118 54.188 39.4118 54.1874 39.4118 54.1868C39.4118 54.1863 39.4118 54.1857 39.4118 54.1851C39.4118 54.1845 39.4118 54.184 39.4118 54.1834C39.4118 54.1828 39.4118 54.1822 39.4118 54.1817C39.4118 54.1811 39.4118 54.1805 39.4118 54.18C39.4118 54.1794 39.4118 54.1788 39.4118 54.1782C39.4118 54.1777 39.4118 54.1771 39.4118 54.1765C39.4118 54.176 39.4118 54.1754 39.4118 54.1748C39.4118 54.1742 39.4118 54.1737 39.4118 54.1731C39.4118 54.1725 39.4118 54.172 39.4118 54.1714C39.4118 54.1708 39.4118 54.1702 39.4118 54.1697C39.4118 54.1691 39.4118 54.1685 39.4118 54.168C39.4118 54.1674 39.4118 54.1668 39.4118 54.1662C39.4118 54.1657 39.4118 54.1651 39.4118 54.1645C39.4118 54.1639 39.4118 54.1634 39.4118 54.1628C39.4118 54.1622 39.4118 54.1617 39.4118 54.1611C39.4118 54.1605 39.4118 54.1599 39.4118 54.1594C39.4118 54.1588 39.4118 54.1582 39.4118 54.1577C39.4118 54.1571 39.4118 54.1565 39.4118 54.1559C39.4118 54.1554 39.4118 54.1548 39.4118 54.1542C39.4118 54.1536 39.4118 54.1531 39.4118 54.1525C39.4118 54.1519 39.4118 54.1514 39.4118 54.1508C39.4118 54.1502 39.4118 54.1496 39.4118 54.1491C39.4118 54.1485 39.4118 54.1479 39.4118 54.1473C39.4118 54.1468 39.4118 54.1462 39.4118 54.1456C39.4118 54.1451 39.4118 54.1445 39.4118 54.1439C39.4118 54.1433 39.4118 54.1428 39.4118 54.1422C39.4118 54.1416 39.4118 54.141 39.4118 54.1405C39.4118 54.1399 39.4118 54.1393 39.4118 54.1388C39.4118 54.1382 39.4118 54.1376 39.4118 54.137C39.4118 54.1365 39.4118 54.1359 39.4118 54.1353C39.4118 54.1347 39.4118 54.1342 39.4118 54.1336C39.4118 54.133 39.4118 54.1325 39.4118 54.1319C39.4118 54.1313 39.4118 54.1307 39.4118 54.1302C39.4118 54.1296 39.4118 54.129 39.4118 54.1284C39.4118 54.1279 39.4118 54.1273 39.4118 54.1267C39.4118 54.1262 39.4118 54.1256 39.4118 54.125C39.4118 54.1244 39.4118 54.1239 39.4118 54.1233C39.4118 54.1227 39.4118 54.1221 39.4118 54.1216C39.4118 54.121 39.4118 54.1204 39.4118 54.1199C39.4118 54.1193 39.4118 54.1187 39.4118 54.1181C39.4118 54.1176 39.4118 54.117 39.4118 54.1164C39.4118 54.1158 39.4118 54.1153 39.4118 54.1147C39.4118 54.1141 39.4118 54.1135 39.4118 54.113C39.4118 54.1124 39.4118 54.1118 39.4118 54.1113C39.4118 54.1107 39.4118 54.1101 39.4118 54.1095C39.4118 54.109 39.4118 54.1084 39.4118 54.1078C39.4118 54.1072 39.4118 54.1067 39.4118 54.1061C39.4118 54.1055 39.4118 54.1049 39.4118 54.1044C39.4118 54.1038 39.4118 54.1032 39.4118 54.1027C39.4118 54.1021 39.4118 54.1015 39.4118 54.1009C39.4118 54.1004 39.4118 54.0998 39.4118 54.0992C39.4118 54.0986 39.4118 54.0981 39.4118 54.0975C39.4118 54.0969 39.4118 54.0963 39.4118 54.0958C39.4118 54.0952 39.4118 54.0946 39.4118 54.094C39.4118 54.0935 39.4118 54.0929 39.4118 54.0923C39.4118 54.0918 39.4118 54.0912 39.4118 54.0906C39.4118 54.09 39.4118 54.0895 39.4118 54.0889C39.4118 54.0883 39.4118 54.0877 39.4118 54.0872C39.4118 54.0866 39.4118 54.086 39.4118 54.0854C39.4118 54.0849 39.4118 54.0843 39.4118 54.0837C39.4118 54.0831 39.4118 54.0826 39.4118 54.082C39.4118 54.0814 39.4118 54.0809 39.4118 54.0803C39.4118 54.0797 39.4118 54.0791 39.4118 54.0786C39.4118 54.078 39.4118 54.0774 39.4118 54.0768C39.4118 54.0763 39.4118 54.0757 39.4118 54.0751C39.4118 54.0745 39.4118 54.074 39.4118 54.0734C39.4118 54.0728 39.4118 54.0722 39.4118 54.0717C39.4118 54.0711 39.4118 54.0705 39.4118 54.0699C39.4118 54.0694 39.4118 54.0688 39.4118 54.0682C39.4118 54.0676 39.4118 54.0671 39.4118 54.0665C39.4118 54.0659 39.4118 54.0654 39.4118 54.0648C39.4118 54.0642 39.4118 54.0636 39.4118 54.0631C39.4118 54.0625 39.4118 54.0619 39.4118 54.0613C39.4118 54.0608 39.4118 54.0602 39.4118 54.0596C39.4118 54.059 39.4118 54.0585 39.4118 54.0579C39.4118 54.0573 39.4118 54.0567 39.4118 54.0562C39.4118 54.0556 39.4118 54.055 39.4118 54.0544C39.4118 54.0539 39.4118 54.0533 39.4118 54.0527C39.4118 54.0521 39.4118 54.0516 39.4118 54.051C39.4118 54.0504 39.4118 54.0498 39.4118 54.0493C39.4118 54.0487 39.4118 54.0481 39.4118 54.0475C39.4118 54.047 39.4118 54.0464 39.4118 54.0458C39.4118 54.0452 39.4118 54.0447 39.4118 54.0441C39.4118 54.0435 39.4118 54.0429 39.4118 54.0424C39.4118 54.0418 39.4118 54.0412 39.4118 54.0406C39.4118 54.0401 39.4118 54.0395 39.4118 54.0389C39.4118 54.0383 39.4118 54.0378 39.4118 54.0372C39.4118 54.0366 39.4118 54.036 39.4118 54.0355C39.4118 54.0349 39.4118 54.0343 39.4118 54.0337C39.4118 54.0332 39.4118 54.0326 39.4118 54.032C39.4118 54.0315 39.4118 54.0309 39.4118 54.0303C39.4118 54.0297 39.4118 54.0292 39.4118 54.0286C39.4118 54.028 39.4118 54.0274 39.4118 54.0269C39.4118 54.0263 39.4118 54.0257 39.4118 54.0251C39.4118 54.0246 39.4118 54.024 39.4118 54.0234C39.4118 54.0228 39.4118 54.0222 39.4118 54.0217C39.4118 54.0211 39.4118 54.0205 39.4118 54.0199C39.4118 54.0194 39.4118 54.0188 39.4118 54.0182C39.4118 54.0176 39.4118 54.0171 39.4118 54.0165C39.4118 54.0159 39.4118 54.0153 39.4118 54.0148C39.4118 54.0142 39.4118 54.0136 39.4118 54.013C39.4118 54.0125 39.4118 54.0119 39.4118 54.0113C39.4118 54.0107 39.4118 54.0102 39.4118 54.0096C39.4118 54.009 39.4118 54.0084 39.4118 54.0079C39.4118 54.0073 39.4118 54.0067 39.4118 54.0061C39.4118 54.0056 39.4118 54.005 39.4118 54.0044C39.4118 54.0038 39.4118 54.0033 39.4118 54.0027C39.4118 54.0021 39.4118 54.0015 39.4118 54.001C39.4118 54.0004 39.4118 53.9998 39.4118 53.9992C39.4118 53.9987 39.4118 53.9981 39.4118 53.9975C39.4118 53.9969 39.4118 53.9964 39.4118 53.9958C39.4118 53.9952 39.4118 53.9946 39.4118 53.9941C39.4118 53.9935 39.4118 53.9929 39.4118 53.9923C39.4118 53.9918 39.4118 53.9912 39.4118 53.9906C39.4118 53.99 39.4118 53.9894 39.4118 53.9889C39.4118 53.9883 39.4118 53.9877 39.4118 53.9871C39.4118 53.9866 39.4118 53.986 39.4118 53.9854C39.4118 53.9848 39.4118 53.9843 39.4118 53.9837C39.4118 53.9831 39.4118 53.9825 39.4118 53.982C39.4118 53.9814 39.4118 53.9808 39.4118 53.9802C39.4118 53.9797 39.4118 53.9791 39.4118 53.9785C39.4118 53.9779 39.4118 53.9774 39.4118 53.9768C39.4118 53.9762 39.4118 53.9756 39.4118 53.975C39.4118 53.9745 39.4118 53.9739 39.4118 53.9733C39.4118 53.9727 39.4118 53.9722 39.4118 53.9716C39.4118 53.971 39.4118 53.9704 39.4118 53.9699C39.4118 53.9693 39.4118 53.9687 39.4118 53.9681C39.4118 53.9676 39.4118 53.967 39.4118 53.9664C39.4118 53.9658 39.4118 53.9653 39.4118 53.9647C39.4118 53.9641 39.4118 53.9635 39.4118 53.9629C39.4118 53.9624 39.4118 53.9618 39.4118 53.9612C39.4118 53.9606 39.4118 53.9601 39.4118 53.9595C39.4118 53.9589 39.4118 53.9583 39.4118 53.9578C39.4118 53.9572 39.4118 53.9566 39.4118 53.956C39.4118 53.9555 39.4118 53.9549 39.4118 53.9543C39.4118 53.9537 39.4118 53.9531 39.4118 53.9526C39.4118 53.952 39.4118 53.9514 39.4118 53.9508C39.4118 53.9503 39.4118 53.9497 39.4118 53.9491C39.4118 53.9485 39.4118 53.948 39.4118 53.9474C39.4118 53.9468 39.4118 53.9462 39.4118 53.9457C39.4118 53.9451 39.4118 53.9445 39.4118 53.9439C39.4118 53.9433 39.4118 53.9428 39.4118 53.9422C39.4118 53.9416 39.4118 53.941 39.4118 53.9405C39.4118 53.9399 39.4118 53.9393 39.4118 53.9387C39.4118 53.9382 39.4118 53.9376 39.4118 53.937C39.4118 53.9364 39.4118 53.9358 39.4118 53.9353C39.4118 53.9347 39.4118 53.9341 39.4118 53.9335C39.4118 53.933 39.4118 53.9324 39.4118 53.9318C39.4118 53.9312 39.4118 53.9307 39.4118 53.9301C39.4118 53.9295 39.4118 53.9289 39.4118 53.9283C39.4118 53.9278 39.4118 53.9272 39.4118 53.9266C39.4118 53.926 39.4118 53.9255 39.4118 53.9249C39.4118 53.9243 39.4118 53.9237 39.4118 53.9232C39.4118 53.9226 39.4118 53.922 39.4118 53.9214C39.4118 53.9208 39.4118 53.9203 39.4118 53.9197C39.4118 53.9191 39.4118 53.9185 39.4118 53.918C39.4118 53.9174 39.4118 53.9168 39.4118 53.9162C39.4118 53.9156 39.4118 53.9151 39.4118 53.9145C39.4118 53.9139 39.4118 53.9133 39.4118 53.9128C39.4118 53.9122 39.4118 53.9116 39.4118 53.911C39.4118 53.9105 39.4118 53.9099 39.4118 53.9093C39.4118 53.9087 39.4118 53.9081 39.4118 53.9076C39.4118 53.907 39.4118 53.9064 39.4118 53.9058C39.4118 53.9053 39.4118 53.9047 39.4118 53.9041C39.4118 53.9035 39.4118 53.9029 39.4118 53.9024C39.4118 53.9018 39.4118 53.9012 39.4118 53.9006C39.4118 53.9001 39.4118 53.8995 39.4118 53.8989C39.4118 53.8983 39.4118 53.8977 39.4118 53.8972C39.4118 53.8966 39.4118 53.896 39.4118 53.8954C39.4118 53.8949 39.4118 53.8943 39.4118 53.8937C39.4118 53.8931 39.4118 53.8925 39.4118 53.892C39.4118 53.8914 39.4118 53.8908 39.4118 53.8902C39.4118 53.8897 39.4118 53.8891 39.4118 53.8885C39.4118 53.8879 39.4118 53.8873 39.4118 53.8868C39.4118 53.8862 39.4118 53.8856 39.4118 53.885C39.4118 53.8845 39.4118 53.8839 39.4118 53.8833C39.4118 53.8827 39.4118 53.8821 39.4118 53.8816C39.4118 53.881 39.4118 53.8804 39.4118 53.8798C39.4118 53.8793 39.4118 53.8787 39.4118 53.8781C39.4118 53.8775 39.4118 53.8769 39.4118 53.8764C39.4118 53.8758 39.4118 53.8752 39.4118 53.8746C39.4118 53.874 39.4118 53.8735 39.4118 53.8729C39.4118 53.8723 39.4118 53.8717 39.4118 53.8712C39.4118 53.8706 39.4118 53.87 39.4118 53.8694C39.4118 53.8688 39.4118 53.8683 39.4118 53.8677C39.4118 53.8671 39.4118 53.8665 39.4118 53.866C39.4118 53.8654 39.4118 53.8648 39.4118 53.8642C39.4118 53.8636 39.4118 53.8631 39.4118 53.8625C39.4118 53.8619 39.4118 53.8613 39.4118 53.8607C39.4118 53.8602 39.4118 53.8596 39.4118 53.859C39.4118 53.8584 39.4118 53.8579 39.4118 53.8573C39.4118 53.8567 39.4118 53.8561 39.4118 53.8555C39.4118 53.855 39.4118 53.8544 39.4118 53.8538C39.4118 53.8532 39.4118 53.8526 39.4118 53.8521C39.4118 53.8515 39.4118 53.8509 39.4118 53.8503C39.4118 53.8498 39.4118 53.8492 39.4118 53.8486C39.4118 53.848 39.4118 53.8474 39.4118 53.8469C39.4118 53.8463 39.4118 53.8457 39.4118 53.8451C39.4118 53.8445 39.4118 53.844 39.4118 53.8434C39.4118 53.8428 39.4118 53.8422 39.4118 53.8417C39.4118 53.8411 39.4118 53.8405 39.4118 53.8399C39.4118 53.8393 39.4118 53.8388 39.4118 53.8382C39.4118 53.8376 39.4118 53.837 39.4118 53.8364C39.4118 53.8359 39.4118 53.8353 39.4118 53.8347C39.4118 53.8341 39.4118 53.8335 39.4118 53.833C39.4118 53.8324 39.4118 53.8318 39.4118 53.8312C39.4118 53.8307 39.4118 53.8301 39.4118 53.8295C39.4118 53.8289 39.4118 53.8283 39.4118 53.8278C39.4118 53.8272 39.4118 53.8266 39.4118 53.826C39.4118 53.8254 39.4118 53.8249 39.4118 53.8243C39.4118 53.8237 39.4118 53.8231 39.4118 53.8225C39.4118 53.822 39.4118 53.8214 39.4118 53.8208C39.4118 53.8202 39.4118 53.8196 39.4118 53.8191C39.4118 53.8185 39.4118 53.8179 39.4118 53.8173C39.4118 53.8168 39.4118 53.8162 39.4118 53.8156C39.4118 53.815 39.4118 53.8144 39.4118 53.8139C39.4118 53.8133 39.4118 53.8127 39.4118 53.8121C39.4118 53.8115 39.4118 53.811 39.4118 53.8104C39.4118 53.8098 39.4118 53.8092 39.4118 53.8086C39.4118 53.8081 39.4118 53.8075 39.4118 53.8069C39.4118 53.8063 39.4118 53.8057 39.4118 53.8052C39.4118 53.8046 39.4118 53.804 39.4118 53.8034C39.4118 53.8028 39.4118 53.8023 39.4118 53.8017C39.4118 53.8011 39.4118 53.8005 39.4118 53.7999C39.4118 53.7994 39.4118 53.7988 39.4118 53.7982C39.4118 53.7976 39.4118 53.797 39.4118 53.7965C39.4118 53.7959 39.4118 53.7953 39.4118 53.7947C39.4118 53.7941 39.4118 53.7936 39.4118 53.793C39.4118 53.7924 39.4118 53.7918 39.4118 53.7912C39.4118 53.7907 39.4118 53.7901 39.4118 53.7895C39.4118 53.7889 39.4118 53.7883 39.4118 53.7878C39.4118 53.7872 39.4118 53.7866 39.4118 53.786C39.4118 53.7854 39.4118 53.7849 39.4118 53.7843C39.4118 53.7837 39.4118 53.7831 39.4118 53.7825C39.4118 53.782 39.4118 53.7814 39.4118 53.7808C39.4118 53.7802 39.4118 53.7796 39.4118 53.7791C39.4118 53.7785 39.4118 53.7779 39.4118 53.7773C39.4118 53.7767 39.4118 53.7762 39.4118 53.7756C39.4118 53.775 39.4118 53.7744 39.4118 53.7738C39.4118 53.7733 39.4118 53.7727 39.4118 53.7721C39.4118 53.7715 39.4118 53.7709 39.4118 53.7704C39.4118 53.7698 39.4118 53.7692 39.4118 53.7686C39.4118 53.768 39.4118 53.7675 39.4118 53.7669C39.4118 53.7663 39.4118 53.7657 39.4118 53.7651C39.4118 53.7646 39.4118 53.764 39.4118 53.7634C39.4118 53.7628 39.4118 53.7622 39.4118 53.7617C39.4118 53.7611 39.4118 53.7605 39.4118 53.7599C39.4118 53.7593 39.4118 53.7588 39.4118 53.7582C39.4118 53.7576 39.4118 53.757 39.4118 53.7564C39.4118 53.7559 39.4118 53.7553 39.4118 53.7547C39.4118 53.7541 39.4118 53.7535 39.4118 53.7529C39.4118 53.7524 39.4118 53.7518 39.4118 53.7512C39.4118 53.7506 39.4118 53.75 39.4118 53.7495C39.4118 53.7489 39.4118 53.7483 39.4118 53.7477C39.4118 53.7471 39.4118 53.7466 39.4118 53.746C39.4118 53.7454 39.4118 53.7448 39.4118 53.7442C39.4118 53.7437 39.4118 53.7431 39.4118 53.7425C39.4118 53.7419 39.4118 53.7413 39.4118 53.7408C39.4118 53.7402 39.4118 53.7396 39.4118 53.739C39.4118 53.7384 39.4118 53.7378 39.4118 53.7373C39.4118 53.7367 39.4118 53.7361 39.4118 53.7355C39.4118 53.7349 39.4118 53.7344 39.4118 53.7338C39.4118 53.7332 39.4118 53.7326 39.4118 53.732C39.4118 53.7315 39.4118 53.7309 39.4118 53.7303C39.4118 53.7297 39.4118 53.7291 39.4118 53.7286C39.4118 53.728 39.4118 53.7274 39.4118 53.7268C39.4118 53.7262 39.4118 53.7256 39.4118 53.7251C39.4118 53.7245 39.4118 53.7239 39.4118 53.7233C39.4118 53.7227 39.4118 53.7222 39.4118 53.7216C39.4118 53.721 39.4118 53.7204 39.4118 53.7198C39.4118 53.7193 39.4118 53.7187 39.4118 53.7181C39.4118 53.7175 39.4118 53.7169 39.4118 53.7163C39.4118 53.7158 39.4118 53.7152 39.4118 53.7146C39.4118 53.714 39.4118 53.7134 39.4118 53.7129C39.4118 53.7123 39.4118 53.7117 39.4118 53.7111C39.4118 53.7105 39.4118 53.7099 39.4118 53.7094C39.4118 53.7088 39.4118 53.7082 39.4118 53.7076C39.4118 53.707 39.4118 53.7065 39.4118 53.7059C39.4118 53.7053 39.4118 53.7047 39.4118 53.7041C39.4118 53.7036 39.4118 53.703 39.4118 53.7024C39.4118 53.7018 39.4118 53.7012 39.4118 53.7006C39.4118 53.7001 39.4118 53.6995 39.4118 53.6989C39.4118 53.6983 39.4118 53.6977 39.4118 53.6972C39.4118 53.6966 39.4118 53.696 39.4118 53.6954C39.4118 53.6948 39.4118 53.6942 39.4118 53.6937C39.4118 53.6931 39.4118 53.6925 39.4118 53.6919C39.4118 53.6913 39.4118 53.6908 39.4118 53.6902C39.4118 53.6896 39.4118 53.689 39.4118 53.6884C39.4118 53.6878 39.4118 53.6873 39.4118 53.6867C39.4118 53.6861 39.4118 53.6855 39.4118 53.6849C39.4118 53.6843 39.4118 53.6838 39.4118 53.6832C39.4118 53.6826 39.4118 53.682 39.4118 53.6814C39.4118 53.6809 39.4118 53.6803 39.4118 53.6797C39.4118 53.6791 39.4118 53.6785 39.4118 53.6779C39.4118 53.6774 39.4118 53.6768 39.4118 53.6762C39.4118 53.6756 39.4118 53.675 39.4118 53.6745C39.4118 53.6739 39.4118 53.6733 39.4118 53.6727C39.4118 53.6721 39.4118 53.6715 39.4118 53.671C39.4118 53.6704 39.4118 53.6698 39.4118 53.6692C39.4118 53.6686 39.4118 53.668 39.4118 53.6675C39.4118 53.6669 39.4118 53.6663 39.4118 53.6657C39.4118 53.6651 39.4118 53.6646 39.4118 53.664C39.4118 53.6634 39.4118 53.6628 39.4118 53.6622C39.4118 53.6616 39.4118 53.6611 39.4118 53.6605C39.4118 53.6599 39.4118 53.6593 39.4118 53.6587C39.4118 53.6581 39.4118 53.6576 39.4118 53.657C39.4118 53.6564 39.4118 53.6558 39.4118 53.6552C39.4118 53.6546 39.4118 53.6541 39.4118 53.6535C39.4118 53.6529 39.4118 53.6523 39.4118 53.6517C39.4118 53.6512 39.4118 53.6506 39.4118 53.65C39.4118 53.6494 39.4118 53.6488 39.4118 53.6482C39.4118 53.6477 39.4118 53.6471 39.4118 53.6465C39.4118 53.6459 39.4118 53.6453 39.4118 53.6447C39.4118 53.6442 39.4118 53.6436 39.4118 53.643C39.4118 53.6424 39.4118 53.6418 39.4118 53.6412C39.4118 53.6407 39.4118 53.6401 39.4118 53.6395C39.4118 53.6389 39.4118 53.6383 39.4118 53.6377C39.4118 53.6372 39.4118 53.6366 39.4118 53.636C39.4118 53.6354 39.4118 53.6348 39.4118 53.6342C39.4118 53.6337 39.4118 53.6331 39.4118 53.6325C39.4118 53.6319 39.4118 53.6313 39.4118 53.6307C39.4118 53.6302 39.4118 53.6296 39.4118 53.629C39.4118 53.6284 39.4118 53.6278 39.4118 53.6272C39.4118 53.6267 39.4118 53.6261 39.4118 53.6255C39.4118 53.6249 39.4118 53.6243 39.4118 53.6237C39.4118 53.6232 39.4118 53.6226 39.4118 53.622H37.4118C37.4118 53.6226 37.4118 53.6232 37.4118 53.6237C37.4118 53.6243 37.4118 53.6249 37.4118 53.6255C37.4118 53.6261 37.4118 53.6267 37.4118 53.6272C37.4118 53.6278 37.4118 53.6284 37.4118 53.629C37.4118 53.6296 37.4118 53.6302 37.4118 53.6307C37.4118 53.6313 37.4118 53.6319 37.4118 53.6325C37.4118 53.6331 37.4118 53.6337 37.4118 53.6342C37.4118 53.6348 37.4118 53.6354 37.4118 53.636C37.4118 53.6366 37.4118 53.6372 37.4118 53.6377C37.4118 53.6383 37.4118 53.6389 37.4118 53.6395C37.4118 53.6401 37.4118 53.6407 37.4118 53.6412C37.4118 53.6418 37.4118 53.6424 37.4118 53.643C37.4118 53.6436 37.4118 53.6442 37.4118 53.6447C37.4118 53.6453 37.4118 53.6459 37.4118 53.6465C37.4118 53.6471 37.4118 53.6477 37.4118 53.6482C37.4118 53.6488 37.4118 53.6494 37.4118 53.65C37.4118 53.6506 37.4118 53.6512 37.4118 53.6517C37.4118 53.6523 37.4118 53.6529 37.4118 53.6535C37.4118 53.6541 37.4118 53.6546 37.4118 53.6552C37.4118 53.6558 37.4118 53.6564 37.4118 53.657C37.4118 53.6576 37.4118 53.6581 37.4118 53.6587C37.4118 53.6593 37.4118 53.6599 37.4118 53.6605C37.4118 53.6611 37.4118 53.6616 37.4118 53.6622C37.4118 53.6628 37.4118 53.6634 37.4118 53.664C37.4118 53.6646 37.4118 53.6651 37.4118 53.6657C37.4118 53.6663 37.4118 53.6669 37.4118 53.6675C37.4118 53.668 37.4118 53.6686 37.4118 53.6692C37.4118 53.6698 37.4118 53.6704 37.4118 53.671C37.4118 53.6715 37.4118 53.6721 37.4118 53.6727C37.4118 53.6733 37.4118 53.6739 37.4118 53.6745C37.4118 53.675 37.4118 53.6756 37.4118 53.6762C37.4118 53.6768 37.4118 53.6774 37.4118 53.6779C37.4118 53.6785 37.4118 53.6791 37.4118 53.6797C37.4118 53.6803 37.4118 53.6809 37.4118 53.6814C37.4118 53.682 37.4118 53.6826 37.4118 53.6832C37.4118 53.6838 37.4118 53.6843 37.4118 53.6849C37.4118 53.6855 37.4118 53.6861 37.4118 53.6867C37.4118 53.6873 37.4118 53.6878 37.4118 53.6884C37.4118 53.689 37.4118 53.6896 37.4118 53.6902C37.4118 53.6908 37.4118 53.6913 37.4118 53.6919C37.4118 53.6925 37.4118 53.6931 37.4118 53.6937C37.4118 53.6942 37.4118 53.6948 37.4118 53.6954C37.4118 53.696 37.4118 53.6966 37.4118 53.6972C37.4118 53.6977 37.4118 53.6983 37.4118 53.6989C37.4118 53.6995 37.4118 53.7001 37.4118 53.7006C37.4118 53.7012 37.4118 53.7018 37.4118 53.7024C37.4118 53.703 37.4118 53.7036 37.4118 53.7041C37.4118 53.7047 37.4118 53.7053 37.4118 53.7059C37.4118 53.7065 37.4118 53.707 37.4118 53.7076C37.4118 53.7082 37.4118 53.7088 37.4118 53.7094C37.4118 53.7099 37.4118 53.7105 37.4118 53.7111C37.4118 53.7117 37.4118 53.7123 37.4118 53.7129C37.4118 53.7134 37.4118 53.714 37.4118 53.7146C37.4118 53.7152 37.4118 53.7158 37.4118 53.7163C37.4118 53.7169 37.4118 53.7175 37.4118 53.7181C37.4118 53.7187 37.4118 53.7193 37.4118 53.7198C37.4118 53.7204 37.4118 53.721 37.4118 53.7216C37.4118 53.7222 37.4118 53.7227 37.4118 53.7233C37.4118 53.7239 37.4118 53.7245 37.4118 53.7251C37.4118 53.7256 37.4118 53.7262 37.4118 53.7268C37.4118 53.7274 37.4118 53.728 37.4118 53.7286C37.4118 53.7291 37.4118 53.7297 37.4118 53.7303C37.4118 53.7309 37.4118 53.7315 37.4118 53.732C37.4118 53.7326 37.4118 53.7332 37.4118 53.7338C37.4118 53.7344 37.4118 53.7349 37.4118 53.7355C37.4118 53.7361 37.4118 53.7367 37.4118 53.7373C37.4118 53.7378 37.4118 53.7384 37.4118 53.739C37.4118 53.7396 37.4118 53.7402 37.4118 53.7408C37.4118 53.7413 37.4118 53.7419 37.4118 53.7425C37.4118 53.7431 37.4118 53.7437 37.4118 53.7442C37.4118 53.7448 37.4118 53.7454 37.4118 53.746C37.4118 53.7466 37.4118 53.7471 37.4118 53.7477C37.4118 53.7483 37.4118 53.7489 37.4118 53.7495C37.4118 53.75 37.4118 53.7506 37.4118 53.7512C37.4118 53.7518 37.4118 53.7524 37.4118 53.7529C37.4118 53.7535 37.4118 53.7541 37.4118 53.7547C37.4118 53.7553 37.4118 53.7559 37.4118 53.7564C37.4118 53.757 37.4118 53.7576 37.4118 53.7582C37.4118 53.7588 37.4118 53.7593 37.4118 53.7599C37.4118 53.7605 37.4118 53.7611 37.4118 53.7617C37.4118 53.7622 37.4118 53.7628 37.4118 53.7634C37.4118 53.764 37.4118 53.7646 37.4118 53.7651C37.4118 53.7657 37.4118 53.7663 37.4118 53.7669C37.4118 53.7675 37.4118 53.768 37.4118 53.7686C37.4118 53.7692 37.4118 53.7698 37.4118 53.7704C37.4118 53.7709 37.4118 53.7715 37.4118 53.7721C37.4118 53.7727 37.4118 53.7733 37.4118 53.7738C37.4118 53.7744 37.4118 53.775 37.4118 53.7756C37.4118 53.7762 37.4118 53.7767 37.4118 53.7773C37.4118 53.7779 37.4118 53.7785 37.4118 53.7791C37.4118 53.7796 37.4118 53.7802 37.4118 53.7808C37.4118 53.7814 37.4118 53.782 37.4118 53.7825C37.4118 53.7831 37.4118 53.7837 37.4118 53.7843C37.4118 53.7849 37.4118 53.7854 37.4118 53.786C37.4118 53.7866 37.4118 53.7872 37.4118 53.7878C37.4118 53.7883 37.4118 53.7889 37.4118 53.7895C37.4118 53.7901 37.4118 53.7907 37.4118 53.7912C37.4118 53.7918 37.4118 53.7924 37.4118 53.793C37.4118 53.7936 37.4118 53.7941 37.4118 53.7947C37.4118 53.7953 37.4118 53.7959 37.4118 53.7965C37.4118 53.797 37.4118 53.7976 37.4118 53.7982C37.4118 53.7988 37.4118 53.7994 37.4118 53.7999C37.4118 53.8005 37.4118 53.8011 37.4118 53.8017C37.4118 53.8023 37.4118 53.8028 37.4118 53.8034C37.4118 53.804 37.4118 53.8046 37.4118 53.8052C37.4118 53.8057 37.4118 53.8063 37.4118 53.8069C37.4118 53.8075 37.4118 53.8081 37.4118 53.8086C37.4118 53.8092 37.4118 53.8098 37.4118 53.8104C37.4118 53.811 37.4118 53.8115 37.4118 53.8121C37.4118 53.8127 37.4118 53.8133 37.4118 53.8139C37.4118 53.8144 37.4118 53.815 37.4118 53.8156C37.4118 53.8162 37.4118 53.8168 37.4118 53.8173C37.4118 53.8179 37.4118 53.8185 37.4118 53.8191C37.4118 53.8196 37.4118 53.8202 37.4118 53.8208C37.4118 53.8214 37.4118 53.822 37.4118 53.8225C37.4118 53.8231 37.4118 53.8237 37.4118 53.8243C37.4118 53.8249 37.4118 53.8254 37.4118 53.826C37.4118 53.8266 37.4118 53.8272 37.4118 53.8278C37.4118 53.8283 37.4118 53.8289 37.4118 53.8295C37.4118 53.8301 37.4118 53.8307 37.4118 53.8312C37.4118 53.8318 37.4118 53.8324 37.4118 53.833C37.4118 53.8335 37.4118 53.8341 37.4118 53.8347C37.4118 53.8353 37.4118 53.8359 37.4118 53.8364C37.4118 53.837 37.4118 53.8376 37.4118 53.8382C37.4118 53.8388 37.4118 53.8393 37.4118 53.8399C37.4118 53.8405 37.4118 53.8411 37.4118 53.8417C37.4118 53.8422 37.4118 53.8428 37.4118 53.8434C37.4118 53.844 37.4118 53.8445 37.4118 53.8451C37.4118 53.8457 37.4118 53.8463 37.4118 53.8469C37.4118 53.8474 37.4118 53.848 37.4118 53.8486C37.4118 53.8492 37.4118 53.8498 37.4118 53.8503C37.4118 53.8509 37.4118 53.8515 37.4118 53.8521C37.4118 53.8526 37.4118 53.8532 37.4118 53.8538C37.4118 53.8544 37.4118 53.855 37.4118 53.8555C37.4118 53.8561 37.4118 53.8567 37.4118 53.8573C37.4118 53.8579 37.4118 53.8584 37.4118 53.859C37.4118 53.8596 37.4118 53.8602 37.4118 53.8607C37.4118 53.8613 37.4118 53.8619 37.4118 53.8625C37.4118 53.8631 37.4118 53.8636 37.4118 53.8642C37.4118 53.8648 37.4118 53.8654 37.4118 53.866C37.4118 53.8665 37.4118 53.8671 37.4118 53.8677C37.4118 53.8683 37.4118 53.8688 37.4118 53.8694C37.4118 53.87 37.4118 53.8706 37.4118 53.8712C37.4118 53.8717 37.4118 53.8723 37.4118 53.8729C37.4118 53.8735 37.4118 53.874 37.4118 53.8746C37.4118 53.8752 37.4118 53.8758 37.4118 53.8764C37.4118 53.8769 37.4118 53.8775 37.4118 53.8781C37.4118 53.8787 37.4118 53.8793 37.4118 53.8798C37.4118 53.8804 37.4118 53.881 37.4118 53.8816C37.4118 53.8821 37.4118 53.8827 37.4118 53.8833C37.4118 53.8839 37.4118 53.8845 37.4118 53.885C37.4118 53.8856 37.4118 53.8862 37.4118 53.8868C37.4118 53.8873 37.4118 53.8879 37.4118 53.8885C37.4118 53.8891 37.4118 53.8897 37.4118 53.8902C37.4118 53.8908 37.4118 53.8914 37.4118 53.892C37.4118 53.8925 37.4118 53.8931 37.4118 53.8937C37.4118 53.8943 37.4118 53.8949 37.4118 53.8954C37.4118 53.896 37.4118 53.8966 37.4118 53.8972C37.4118 53.8977 37.4118 53.8983 37.4118 53.8989C37.4118 53.8995 37.4118 53.9001 37.4118 53.9006C37.4118 53.9012 37.4118 53.9018 37.4118 53.9024C37.4118 53.9029 37.4118 53.9035 37.4118 53.9041C37.4118 53.9047 37.4118 53.9053 37.4118 53.9058C37.4118 53.9064 37.4118 53.907 37.4118 53.9076C37.4118 53.9081 37.4118 53.9087 37.4118 53.9093C37.4118 53.9099 37.4118 53.9105 37.4118 53.911C37.4118 53.9116 37.4118 53.9122 37.4118 53.9128C37.4118 53.9133 37.4118 53.9139 37.4118 53.9145C37.4118 53.9151 37.4118 53.9156 37.4118 53.9162C37.4118 53.9168 37.4118 53.9174 37.4118 53.918C37.4118 53.9185 37.4118 53.9191 37.4118 53.9197C37.4118 53.9203 37.4118 53.9208 37.4118 53.9214C37.4118 53.922 37.4118 53.9226 37.4118 53.9232C37.4118 53.9237 37.4118 53.9243 37.4118 53.9249C37.4118 53.9255 37.4118 53.926 37.4118 53.9266C37.4118 53.9272 37.4118 53.9278 37.4118 53.9283C37.4118 53.9289 37.4118 53.9295 37.4118 53.9301C37.4118 53.9307 37.4118 53.9312 37.4118 53.9318C37.4118 53.9324 37.4118 53.933 37.4118 53.9335C37.4118 53.9341 37.4118 53.9347 37.4118 53.9353C37.4118 53.9358 37.4118 53.9364 37.4118 53.937C37.4118 53.9376 37.4118 53.9382 37.4118 53.9387C37.4118 53.9393 37.4118 53.9399 37.4118 53.9405C37.4118 53.941 37.4118 53.9416 37.4118 53.9422C37.4118 53.9428 37.4118 53.9433 37.4118 53.9439C37.4118 53.9445 37.4118 53.9451 37.4118 53.9457C37.4118 53.9462 37.4118 53.9468 37.4118 53.9474C37.4118 53.948 37.4118 53.9485 37.4118 53.9491C37.4118 53.9497 37.4118 53.9503 37.4118 53.9508C37.4118 53.9514 37.4118 53.952 37.4118 53.9526C37.4118 53.9531 37.4118 53.9537 37.4118 53.9543C37.4118 53.9549 37.4118 53.9555 37.4118 53.956C37.4118 53.9566 37.4118 53.9572 37.4118 53.9578C37.4118 53.9583 37.4118 53.9589 37.4118 53.9595C37.4118 53.9601 37.4118 53.9606 37.4118 53.9612C37.4118 53.9618 37.4118 53.9624 37.4118 53.9629C37.4118 53.9635 37.4118 53.9641 37.4118 53.9647C37.4118 53.9653 37.4118 53.9658 37.4118 53.9664C37.4118 53.967 37.4118 53.9676 37.4118 53.9681C37.4118 53.9687 37.4118 53.9693 37.4118 53.9699C37.4118 53.9704 37.4118 53.971 37.4118 53.9716C37.4118 53.9722 37.4118 53.9727 37.4118 53.9733C37.4118 53.9739 37.4118 53.9745 37.4118 53.975C37.4118 53.9756 37.4118 53.9762 37.4118 53.9768C37.4118 53.9774 37.4118 53.9779 37.4118 53.9785C37.4118 53.9791 37.4118 53.9797 37.4118 53.9802C37.4118 53.9808 37.4118 53.9814 37.4118 53.982C37.4118 53.9825 37.4118 53.9831 37.4118 53.9837C37.4118 53.9843 37.4118 53.9848 37.4118 53.9854C37.4118 53.986 37.4118 53.9866 37.4118 53.9871C37.4118 53.9877 37.4118 53.9883 37.4118 53.9889C37.4118 53.9894 37.4118 53.99 37.4118 53.9906C37.4118 53.9912 37.4118 53.9918 37.4118 53.9923C37.4118 53.9929 37.4118 53.9935 37.4118 53.9941C37.4118 53.9946 37.4118 53.9952 37.4118 53.9958C37.4118 53.9964 37.4118 53.9969 37.4118 53.9975C37.4118 53.9981 37.4118 53.9987 37.4118 53.9992C37.4118 53.9998 37.4118 54.0004 37.4118 54.001C37.4118 54.0015 37.4118 54.0021 37.4118 54.0027C37.4118 54.0033 37.4118 54.0038 37.4118 54.0044C37.4118 54.005 37.4118 54.0056 37.4118 54.0061C37.4118 54.0067 37.4118 54.0073 37.4118 54.0079C37.4118 54.0084 37.4118 54.009 37.4118 54.0096C37.4118 54.0102 37.4118 54.0107 37.4118 54.0113C37.4118 54.0119 37.4118 54.0125 37.4118 54.013C37.4118 54.0136 37.4118 54.0142 37.4118 54.0148C37.4118 54.0153 37.4118 54.0159 37.4118 54.0165C37.4118 54.0171 37.4118 54.0176 37.4118 54.0182C37.4118 54.0188 37.4118 54.0194 37.4118 54.0199C37.4118 54.0205 37.4118 54.0211 37.4118 54.0217C37.4118 54.0222 37.4118 54.0228 37.4118 54.0234C37.4118 54.024 37.4118 54.0246 37.4118 54.0251C37.4118 54.0257 37.4118 54.0263 37.4118 54.0269C37.4118 54.0274 37.4118 54.028 37.4118 54.0286C37.4118 54.0292 37.4118 54.0297 37.4118 54.0303C37.4118 54.0309 37.4118 54.0315 37.4118 54.032C37.4118 54.0326 37.4118 54.0332 37.4118 54.0337C37.4118 54.0343 37.4118 54.0349 37.4118 54.0355C37.4118 54.036 37.4118 54.0366 37.4118 54.0372C37.4118 54.0378 37.4118 54.0383 37.4118 54.0389C37.4118 54.0395 37.4118 54.0401 37.4118 54.0406C37.4118 54.0412 37.4118 54.0418 37.4118 54.0424C37.4118 54.0429 37.4118 54.0435 37.4118 54.0441C37.4118 54.0447 37.4118 54.0452 37.4118 54.0458C37.4118 54.0464 37.4118 54.047 37.4118 54.0475C37.4118 54.0481 37.4118 54.0487 37.4118 54.0493C37.4118 54.0498 37.4118 54.0504 37.4118 54.051C37.4118 54.0516 37.4118 54.0521 37.4118 54.0527C37.4118 54.0533 37.4118 54.0539 37.4118 54.0544C37.4118 54.055 37.4118 54.0556 37.4118 54.0562C37.4118 54.0567 37.4118 54.0573 37.4118 54.0579C37.4118 54.0585 37.4118 54.059 37.4118 54.0596C37.4118 54.0602 37.4118 54.0608 37.4118 54.0613C37.4118 54.0619 37.4118 54.0625 37.4118 54.0631C37.4118 54.0636 37.4118 54.0642 37.4118 54.0648C37.4118 54.0654 37.4118 54.0659 37.4118 54.0665C37.4118 54.0671 37.4118 54.0676 37.4118 54.0682C37.4118 54.0688 37.4118 54.0694 37.4118 54.0699C37.4118 54.0705 37.4118 54.0711 37.4118 54.0717C37.4118 54.0722 37.4118 54.0728 37.4118 54.0734C37.4118 54.074 37.4118 54.0745 37.4118 54.0751C37.4118 54.0757 37.4118 54.0763 37.4118 54.0768C37.4118 54.0774 37.4118 54.078 37.4118 54.0786C37.4118 54.0791 37.4118 54.0797 37.4118 54.0803C37.4118 54.0809 37.4118 54.0814 37.4118 54.082C37.4118 54.0826 37.4118 54.0831 37.4118 54.0837C37.4118 54.0843 37.4118 54.0849 37.4118 54.0854C37.4118 54.086 37.4118 54.0866 37.4118 54.0872C37.4118 54.0877 37.4118 54.0883 37.4118 54.0889C37.4118 54.0895 37.4118 54.09 37.4118 54.0906C37.4118 54.0912 37.4118 54.0918 37.4118 54.0923C37.4118 54.0929 37.4118 54.0935 37.4118 54.094C37.4118 54.0946 37.4118 54.0952 37.4118 54.0958C37.4118 54.0963 37.4118 54.0969 37.4118 54.0975C37.4118 54.0981 37.4118 54.0986 37.4118 54.0992C37.4118 54.0998 37.4118 54.1004 37.4118 54.1009C37.4118 54.1015 37.4118 54.1021 37.4118 54.1027C37.4118 54.1032 37.4118 54.1038 37.4118 54.1044C37.4118 54.1049 37.4118 54.1055 37.4118 54.1061C37.4118 54.1067 37.4118 54.1072 37.4118 54.1078C37.4118 54.1084 37.4118 54.109 37.4118 54.1095C37.4118 54.1101 37.4118 54.1107 37.4118 54.1113C37.4118 54.1118 37.4118 54.1124 37.4118 54.113C37.4118 54.1135 37.4118 54.1141 37.4118 54.1147C37.4118 54.1153 37.4118 54.1158 37.4118 54.1164C37.4118 54.117 37.4118 54.1176 37.4118 54.1181C37.4118 54.1187 37.4118 54.1193 37.4118 54.1199C37.4118 54.1204 37.4118 54.121 37.4118 54.1216C37.4118 54.1221 37.4118 54.1227 37.4118 54.1233C37.4118 54.1239 37.4118 54.1244 37.4118 54.125C37.4118 54.1256 37.4118 54.1262 37.4118 54.1267C37.4118 54.1273 37.4118 54.1279 37.4118 54.1284C37.4118 54.129 37.4118 54.1296 37.4118 54.1302C37.4118 54.1307 37.4118 54.1313 37.4118 54.1319C37.4118 54.1325 37.4118 54.133 37.4118 54.1336C37.4118 54.1342 37.4118 54.1347 37.4118 54.1353C37.4118 54.1359 37.4118 54.1365 37.4118 54.137C37.4118 54.1376 37.4118 54.1382 37.4118 54.1388C37.4118 54.1393 37.4118 54.1399 37.4118 54.1405C37.4118 54.141 37.4118 54.1416 37.4118 54.1422C37.4118 54.1428 37.4118 54.1433 37.4118 54.1439C37.4118 54.1445 37.4118 54.1451 37.4118 54.1456C37.4118 54.1462 37.4118 54.1468 37.4118 54.1473C37.4118 54.1479 37.4118 54.1485 37.4118 54.1491C37.4118 54.1496 37.4118 54.1502 37.4118 54.1508C37.4118 54.1514 37.4118 54.1519 37.4118 54.1525C37.4118 54.1531 37.4118 54.1536 37.4118 54.1542C37.4118 54.1548 37.4118 54.1554 37.4118 54.1559C37.4118 54.1565 37.4118 54.1571 37.4118 54.1577C37.4118 54.1582 37.4118 54.1588 37.4118 54.1594C37.4118 54.1599 37.4118 54.1605 37.4118 54.1611C37.4118 54.1617 37.4118 54.1622 37.4118 54.1628C37.4118 54.1634 37.4118 54.1639 37.4118 54.1645C37.4118 54.1651 37.4118 54.1657 37.4118 54.1662C37.4118 54.1668 37.4118 54.1674 37.4118 54.168C37.4118 54.1685 37.4118 54.1691 37.4118 54.1697C37.4118 54.1702 37.4118 54.1708 37.4118 54.1714C37.4118 54.172 37.4118 54.1725 37.4118 54.1731C37.4118 54.1737 37.4118 54.1742 37.4118 54.1748C37.4118 54.1754 37.4118 54.176 37.4118 54.1765C37.4118 54.1771 37.4118 54.1777 37.4118 54.1782C37.4118 54.1788 37.4118 54.1794 37.4118 54.18C37.4118 54.1805 37.4118 54.1811 37.4118 54.1817C37.4118 54.1822 37.4118 54.1828 37.4118 54.1834C37.4118 54.184 37.4118 54.1845 37.4118 54.1851C37.4118 54.1857 37.4118 54.1863 37.4118 54.1868C37.4118 54.1874 37.4118 54.188 37.4118 54.1885C37.4118 54.1891 37.4118 54.1897 37.4118 54.1903C37.4118 54.1908 37.4118 54.1914 37.4118 54.192C37.4118 54.1925 37.4118 54.1931 37.4118 54.1937C37.4118 54.1943 37.4118 54.1948 37.4118 54.1954C37.4118 54.196 37.4118 54.1965 37.4118 54.1971C37.4118 54.1977 37.4118 54.1983 37.4118 54.1988C37.4118 54.1994 37.4118 54.2 37.4118 54.2005C37.4118 54.2011 37.4118 54.2017 37.4118 54.2023C37.4118 54.2028 37.4118 54.2034 37.4118 54.204C37.4118 54.2045 37.4118 54.2051 37.4118 54.2057C37.4118 54.2063 37.4118 54.2068 37.4118 54.2074C37.4118 54.208 37.4118 54.2085 37.4118 54.2091C37.4118 54.2097 37.4118 54.2103 37.4118 54.2108C37.4118 54.2114 37.4118 54.212 37.4118 54.2125C37.4118 54.2131 37.4118 54.2137 37.4118 54.2143C37.4118 54.2148 37.4118 54.2154 37.4118 54.216C37.4118 54.2165 37.4118 54.2171 37.4118 54.2177C37.4118 54.2183 37.4118 54.2188 37.4118 54.2194C37.4118 54.22 37.4118 54.2205 37.4118 54.2211C37.4118 54.2217 37.4118 54.2222 37.4118 54.2228C37.4118 54.2234 37.4118 54.224 37.4118 54.2245C37.4118 54.2251 37.4118 54.2257 37.4118 54.2262C37.4118 54.2268 37.4118 54.2274 37.4118 54.228C37.4118 54.2285 37.4118 54.2291 37.4118 54.2297C37.4118 54.2302 37.4118 54.2308 37.4118 54.2314C37.4118 54.232 37.4118 54.2325 37.4118 54.2331C37.4118 54.2337 37.4118 54.2342 37.4118 54.2348C37.4118 54.2354 37.4118 54.2359 37.4118 54.2365C37.4118 54.2371 37.4118 54.2377 37.4118 54.2382C37.4118 54.2388 37.4118 54.2394 37.4118 54.2399C37.4118 54.2405 37.4118 54.2411 37.4118 54.2417C37.4118 54.2422 37.4118 54.2428 37.4118 54.2434C37.4118 54.2439 37.4118 54.2445 37.4118 54.2451C37.4118 54.2456 37.4118 54.2462 37.4118 54.2468C37.4118 54.2474 37.4118 54.2479 37.4118 54.2485C37.4118 54.2491 37.4118 54.2496 37.4118 54.2502C37.4118 54.2508 37.4118 54.2514 37.4118 54.2519C37.4118 54.2525 37.4118 54.2531 37.4118 54.2536C37.4118 54.2542 37.4118 54.2548 37.4118 54.2553C37.4118 54.2559 37.4118 54.2565 37.4118 54.2571C37.4118 54.2576 37.4118 54.2582 37.4118 54.2588C37.4118 54.2593 37.4118 54.2599 37.4118 54.2605C37.4118 54.261 37.4118 54.2616 37.4118 54.2622C37.4118 54.2628 37.4118 54.2633 37.4118 54.2639C37.4118 54.2645 37.4118 54.265 37.4118 54.2656C37.4118 54.2662 37.4118 54.2667 37.4118 54.2673C37.4118 54.2679 37.4118 54.2685 37.4118 54.269C37.4118 54.2696 37.4118 54.2702 37.4118 54.2707C37.4118 54.2713 37.4118 54.2719 37.4118 54.2724C37.4118 54.273 37.4118 54.2736 37.4118 54.2742C37.4118 54.2747 37.4118 54.2753 37.4118 54.2759C37.4118 54.2764 37.4118 54.277 37.4118 54.2776C37.4118 54.2781 37.4118 54.2787 37.4118 54.2793C37.4118 54.2799 37.4118 54.2804 37.4118 54.281C37.4118 54.2816 37.4118 54.2821 37.4118 54.2827C37.4118 54.2833 37.4118 54.2838 37.4118 54.2844C37.4118 54.285 37.4118 54.2856 37.4118 54.2861C37.4118 54.2867 37.4118 54.2873 37.4118 54.2878C37.4118 54.2884 37.4118 54.289 37.4118 54.2895C37.4118 54.2901 37.4118 54.2907 37.4118 54.2913C37.4118 54.2918 37.4118 54.2924 37.4118 54.293C37.4118 54.2935 37.4118 54.2941 37.4118 54.2947C37.4118 54.2952 37.4118 54.2958 37.4118 54.2964C37.4118 54.2969 37.4118 54.2975 37.4118 54.2981C37.4118 54.2987 37.4118 54.2992 37.4118 54.2998C37.4118 54.3004 37.4118 54.3009 37.4118 54.3015C37.4118 54.3021 37.4118 54.3026 37.4118 54.3032C37.4118 54.3038 37.4118 54.3043 37.4118 54.3049C37.4118 54.3055 37.4118 54.3061 37.4118 54.3066C37.4118 54.3072 37.4118 54.3078 37.4118 54.3083C37.4118 54.3089 37.4118 54.3095 37.4118 54.31C37.4118 54.3106 37.4118 54.3112 37.4118 54.3117C37.4118 54.3123 37.4118 54.3129 37.4118 54.3135C37.4118 54.314 37.4118 54.3146 37.4118 54.3152C37.4118 54.3157 37.4118 54.3163 37.4118 54.3169C37.4118 54.3174 37.4118 54.318 37.4118 54.3186C37.4118 54.3191 37.4118 54.3197 37.4118 54.3203C37.4118 54.3209 37.4118 54.3214 37.4118 54.322C37.4118 54.3226 37.4118 54.3231 37.4118 54.3237C37.4118 54.3243 37.4118 54.3248 37.4118 54.3254C37.4118 54.326 37.4118 54.3265 37.4118 54.3271C37.4118 54.3277 37.4118 54.3282 37.4118 54.3288C37.4118 54.3294 37.4118 54.33 37.4118 54.3305C37.4118 54.3311 37.4118 54.3317 37.4118 54.3322C37.4118 54.3328 37.4118 54.3334 37.4118 54.3339C37.4118 54.3345 37.4118 54.3351 37.4118 54.3356C37.4118 54.3362 37.4118 54.3368 37.4118 54.3373C37.4118 54.3379 37.4118 54.3385 37.4118 54.3391C37.4118 54.3396 37.4118 54.3402 37.4118 54.3408C37.4118 54.3413 37.4118 54.3419 37.4118 54.3425C37.4118 54.343 37.4118 54.3436 37.4118 54.3442C37.4118 54.3447 37.4118 54.3453 37.4118 54.3459C37.4118 54.3464 37.4118 54.347 37.4118 54.3476C37.4118 54.3481 37.4118 54.3487 37.4118 54.3493C37.4118 54.3499 37.4118 54.3504 37.4118 54.351C37.4118 54.3516 37.4118 54.3521 37.4118 54.3527C37.4118 54.3533 37.4118 54.3538 37.4118 54.3544C37.4118 54.355 37.4118 54.3555 37.4118 54.3561C37.4118 54.3567 37.4118 54.3572 37.4118 54.3578C37.4118 54.3584 37.4118 54.3589 37.4118 54.3595C37.4118 54.3601 37.4118 54.3606 37.4118 54.3612C37.4118 54.3618 37.4118 54.3624 37.4118 54.3629C37.4118 54.3635 37.4118 54.3641 37.4118 54.3646C37.4118 54.3652 37.4118 54.3658 37.4118 54.3663C37.4118 54.3669 37.4118 54.3675 37.4118 54.368C37.4118 54.3686 37.4118 54.3692 37.4118 54.3697C37.4118 54.3703 37.4118 54.3709 37.4118 54.3714C37.4118 54.372 37.4118 54.3726 37.4118 54.3731C37.4118 54.3737 37.4118 54.3743 37.4118 54.3748C37.4118 54.3754 37.4118 54.376 37.4118 54.3766C37.4118 54.3771 37.4118 54.3777 37.4118 54.3783C37.4118 54.3788 37.4118 54.3794 37.4118 54.38C37.4118 54.3805 37.4118 54.3811 37.4118 54.3817C37.4118 54.3822 37.4118 54.3828 37.4118 54.3834C37.4118 54.3839 37.4118 54.3845 37.4118 54.3851C37.4118 54.3856 37.4118 54.3862 37.4118 54.3868C37.4118 54.3873 37.4118 54.3879 37.4118 54.3885C37.4118 54.389 37.4118 54.3896 37.4118 54.3902C37.4118 54.3907 37.4118 54.3913 37.4118 54.3919C37.4118 54.3924 37.4118 54.393 37.4118 54.3936C37.4118 54.3941 37.4118 54.3947 37.4118 54.3953C37.4118 54.3958 37.4118 54.3964 37.4118 54.397C37.4118 54.3976 37.4118 54.3981 37.4118 54.3987C37.4118 54.3993 37.4118 54.3998 37.4118 54.4004C37.4118 54.401 37.4118 54.4015 37.4118 54.4021C37.4118 54.4027 37.4118 54.4032 37.4118 54.4038C37.4118 54.4044 37.4118 54.4049 37.4118 54.4055C37.4118 54.4061 37.4118 54.4066 37.4118 54.4072C37.4118 54.4078 37.4118 54.4083 37.4118 54.4089C37.4118 54.4095 37.4118 54.41 37.4118 54.4106C37.4118 54.4112 37.4118 54.4117 37.4118 54.4123C37.4118 54.4129 37.4118 54.4134 37.4118 54.414C37.4118 54.4146 37.4118 54.4151 37.4118 54.4157C37.4118 54.4163 37.4118 54.4168 37.4118 54.4174C37.4118 54.418 37.4118 54.4185 37.4118 54.4191C37.4118 54.4197 37.4118 54.4202 37.4118 54.4208C37.4118 54.4214 37.4118 54.4219 37.4118 54.4225C37.4118 54.4231 37.4118 54.4236 37.4118 54.4242C37.4118 54.4248 37.4118 54.4253 37.4118 54.4259C37.4118 54.4265 37.4118 54.427 37.4118 54.4276C37.4118 54.4282 37.4118 54.4287 37.4118 54.4293C37.4118 54.4299 37.4118 54.4304 37.4118 54.431C37.4118 54.4316 37.4118 54.4321 37.4118 54.4327C37.4118 54.4333 37.4118 54.4338 37.4118 54.4344C37.4118 54.435 37.4118 54.4355 37.4118 54.4361C37.4118 54.4367 37.4118 54.4372 37.4118 54.4378C37.4118 54.4384 37.4118 54.4389 37.4118 54.4395C37.4118 54.4401 37.4118 54.4406 37.4118 54.4412C37.4118 54.4418 37.4118 54.4423 37.4118 54.4429C37.4118 54.4435 37.4118 54.444 37.4118 54.4446C37.4118 54.4452 37.4118 54.4457 37.4118 54.4463C37.4118 54.4469 37.4118 54.4474 37.4118 54.448C37.4118 54.4486 37.4118 54.4491 37.4118 54.4497C37.4118 54.4503 37.4118 54.4508 37.4118 54.4514C37.4118 54.452 37.4118 54.4525 37.4118 54.4531C37.4118 54.4537 37.4118 54.4542 37.4118 54.4548C37.4118 54.4554 37.4118 54.4559 37.4118 54.4565C37.4118 54.4571 37.4118 54.4576 37.4118 54.4582C37.4118 54.4588 37.4118 54.4593 37.4118 54.4599C37.4118 54.4605 37.4118 54.461 37.4118 54.4616C37.4118 54.4621 37.4118 54.4627 37.4118 54.4633C37.4118 54.4638 37.4118 54.4644 37.4118 54.465C37.4118 54.4655 37.4118 54.4661 37.4118 54.4667C37.4118 54.4672 37.4118 54.4678 37.4118 54.4684C37.4118 54.4689 37.4118 54.4695 37.4118 54.4701C37.4118 54.4706 37.4118 54.4712 37.4118 54.4718C37.4118 54.4723 37.4118 54.4729 37.4118 54.4735C37.4118 54.474 37.4118 54.4746 37.4118 54.4752C37.4118 54.4757 37.4118 54.4763 37.4118 54.4769C37.4118 54.4774 37.4118 54.478 37.4118 54.4786C37.4118 54.4791 37.4118 54.4797 37.4118 54.4803C37.4118 54.4808 37.4118 54.4814 37.4118 54.482C37.4118 54.4825 37.4118 54.4831 37.4118 54.4836C37.4118 54.4842 37.4118 54.4848 37.4118 54.4853C37.4118 54.4859 37.4118 54.4865 37.4118 54.487C37.4118 54.4876 37.4118 54.4882 37.4118 54.4887C37.4118 54.4893 37.4118 54.4899 37.4118 54.4904C37.4118 54.491 37.4118 54.4916 37.4118 54.4921C37.4118 54.4927 37.4118 54.4933 37.4118 54.4938C37.4118 54.4944 37.4118 54.495 37.4118 54.4955C37.4118 54.4961 37.4118 54.4967 37.4118 54.4972C37.4118 54.4978 37.4118 54.4983 37.4118 54.4989C37.4118 54.4995 37.4118 54.5 37.4118 54.5006C37.4118 54.5012 37.4118 54.5017 37.4118 54.5023C37.4118 54.5029 37.4118 54.5034 37.4118 54.504H39.4118ZM39.4118 53.622V51.2H37.4118V53.622H39.4118ZM38.4118 52.2H40.7218V50.2H38.4118V52.2ZM39.7218 51.2V61H41.7218V51.2H39.7218ZM40.7218 60H38.4538V62H40.7218V60ZM39.1754 60.3077L32.2454 53.0837L30.8021 54.4683L37.7321 61.6923L39.1754 60.3077ZM31.3631 54.763L31.9651 54.861L32.2865 52.887L31.6845 52.789L31.3631 54.763ZM31.1419 54.0529C31.174 54.2293 31.1979 54.4052 31.2139 54.5805L33.2057 54.3995C33.1843 54.1642 33.1522 53.9293 33.1097 53.6951L31.1419 54.0529ZM31.2139 54.5805C31.2337 54.798 31.2582 55.0239 31.2875 55.258L33.2721 55.01C33.2453 54.7961 33.2232 54.5926 33.2057 54.3995L31.2139 54.5805ZM31.2875 55.258C31.313 55.462 31.3347 55.6868 31.3523 55.9332L33.3472 55.7908C33.3275 55.5145 33.3026 55.254 33.2721 55.01L31.2875 55.258ZM31.3555 55.9685C31.3791 56.1891 31.3918 56.4377 31.3918 56.716H33.3918C33.3918 56.3783 33.3765 56.0576 33.3441 55.7555L31.3555 55.9685ZM31.3922 56.7463C31.4012 57.0426 31.4058 57.3683 31.4058 57.724H33.4058C33.4058 57.3517 33.401 57.0054 33.3913 56.6857L31.3922 56.7463ZM31.4058 57.724V61H33.4058V57.724H31.4058ZM32.4058 60H30.0958V62H32.4058V60ZM43.6385 61L42.7355 60.5704L42.0554 62H43.6385V61ZM48.3005 51.2V50.2H47.6688L47.3975 50.7704L48.3005 51.2ZM50.4985 51.2L51.402 50.7715L51.131 50.2H50.4985V51.2ZM55.1465 61V62H56.7275L56.05 60.5715L55.1465 61ZM52.6965 61L51.7937 61.4301L52.0652 62H52.6965V61ZM50.0085 55.358L49.0914 55.7567L49.0983 55.7725L49.1057 55.7881L50.0085 55.358ZM49.7285 54.756L48.8166 55.1664L48.8249 55.185L48.8341 55.2032L49.7285 54.756ZM49.4905 54.21L48.5466 54.5404L48.5568 54.5695L48.5688 54.5981L49.4905 54.21ZM49.2945 53.65L50.2383 53.3196L50.2383 53.3196L49.2945 53.65ZM49.1125 53.09L49.0855 52.0904L47.7792 52.1257L48.1547 53.3773L49.1125 53.09ZM49.6305 53.076L50.5834 53.3792L51.01 52.0383L49.6035 52.0764L49.6305 53.076ZM49.4345 53.678L50.3783 54.0084L50.3808 54.0013L50.3832 53.9942L49.4345 53.678ZM49.2105 54.238L50.1224 54.6484L50.1224 54.6484L49.2105 54.238ZM48.9585 54.798L49.8622 55.2261L49.8664 55.2173L49.8704 55.2084L48.9585 54.798ZM48.7065 55.372L49.6097 55.8011L49.6216 55.7762L49.632 55.7506L48.7065 55.372ZM46.0325 61V62H46.6645L46.9357 61.4291L46.0325 61ZM45.8085 59.236L44.8897 58.8412L44.2904 60.236H45.8085V59.236ZM46.5785 57.444V56.444H45.9198L45.6597 57.0492L46.5785 57.444ZM52.1785 57.444L53.1538 57.223L52.9773 56.444H52.1785V57.444ZM52.5845 59.236V60.236H53.8364L53.5598 59.015L52.5845 59.236ZM44.5415 61.4296L49.2035 51.6296L47.3975 50.7704L42.7355 60.5704L44.5415 61.4296ZM48.3005 52.2H50.4985V50.2H48.3005V52.2ZM49.595 51.6285L54.243 61.4285L56.05 60.5715L51.402 50.7715L49.595 51.6285ZM55.1465 60H52.6965V62H55.1465V60ZM53.5993 60.5699L50.9113 54.9279L49.1057 55.7881L51.7937 61.4301L53.5993 60.5699ZM50.9256 54.9593C50.8259 54.7302 50.7251 54.5132 50.6229 54.3088L48.8341 55.2032C48.9185 55.3721 49.0044 55.5565 49.0914 55.7567L50.9256 54.9593ZM50.6404 54.3456C50.5595 54.1659 50.4834 53.9913 50.4121 53.8219L48.5688 54.5981C48.6469 54.7833 48.7294 54.9728 48.8166 55.1664L50.6404 54.3456ZM50.4343 53.8796C50.369 53.693 50.3037 53.5063 50.2383 53.3196L48.3506 53.9803C48.416 54.167 48.4813 54.3537 48.5466 54.5404L50.4343 53.8796ZM50.2383 53.3196C50.1779 53.147 50.1219 52.9747 50.0703 52.8027L48.1547 53.3773C48.2151 53.5787 48.2804 53.7797 48.3506 53.9804L50.2383 53.3196ZM49.1395 54.0896L49.6575 54.0756L49.6035 52.0764L49.0855 52.0904L49.1395 54.0896ZM48.6776 52.7728C48.6136 52.974 48.5496 53.1703 48.4858 53.3618L50.3832 53.9942C50.45 53.7937 50.5168 53.5887 50.5834 53.3792L48.6776 52.7728ZM48.4906 53.3476C48.4351 53.5063 48.3712 53.6663 48.2986 53.8276L50.1224 54.6484C50.2178 54.4364 50.3032 54.2231 50.3783 54.0084L48.4906 53.3476ZM48.2986 53.8276C48.2146 54.0143 48.1306 54.201 48.0466 54.3876L49.8704 55.2084C49.9544 55.0217 50.0384 54.835 50.1224 54.6484L48.2986 53.8276ZM48.0547 54.3699C47.9621 54.5655 47.8709 54.7735 47.7809 54.9934L49.632 55.7506C49.7101 55.5599 49.7869 55.3852 49.8622 55.2261L48.0547 54.3699ZM47.8033 54.9429L45.1293 60.5709L46.9357 61.4291L49.6097 55.8011L47.8033 54.9429ZM46.0325 60H43.6385V62H46.0325V60ZM46.7273 59.6308L47.4973 57.8388L45.6597 57.0492L44.8897 58.8412L46.7273 59.6308ZM46.5785 58.444H52.1785V56.444H46.5785V58.444ZM51.2032 57.665L51.6092 59.457L53.5598 59.015L53.1538 57.223L51.2032 57.665ZM52.5845 58.236H45.8085V60.236H52.5845V58.236ZM58.0548 61H57.0548V62H58.0548V61ZM58.0548 51.2V50.2H57.0548V51.2H58.0548ZM60.4348 51.2H61.4348V50.2H60.4348V51.2ZM60.4348 58.9H59.4348V59.9H60.4348V58.9ZM66.3708 58.9H67.3708V57.9H66.3708V58.9ZM66.3708 61V62H67.3708V61H66.3708ZM59.0548 61V51.2H57.0548V61H59.0548ZM58.0548 52.2H60.4348V50.2H58.0548V52.2ZM59.4348 51.2V58.9H61.4348V51.2H59.4348ZM60.4348 59.9H66.3708V57.9H60.4348V59.9ZM65.3708 58.9V61H67.3708V58.9H65.3708ZM66.3708 60H58.0548V62H66.3708V60Z" fill="black"/>
</g>
<defs>
<filter id="filter0_d_109_106" x="0.742004" y="32.976" width="70.2859" height="36.024" filterUnits="userSpaceOnUse" color-interpolation-filters="sRGB">
<feFlood flood-opacity="0" result="BackgroundImageFix"/>
<feColorMatrix in="SourceAlpha" type="matrix" values="0 0 0 0 0 0 0 0 0 0 0 0 0 0 0 0 0 0 127 0" result="hardAlpha"/>
<feOffset dy="4"/>
<feGaussianBlur stdDeviation="2"/>
<feComposite in2="hardAlpha" operator="out"/>
<feColorMatrix type="matrix" values="0 0 0 0 0 0 0 0 0 0 0 0 0 0 0 0 0 0 0.25 0"/>
<feBlend mode="normal" in2="BackgroundImageFix" result="effect1_dropShadow_109_106"/>
<feBlend mode="normal" in="SourceGraphic" in2="effect1_dropShadow_109_106" result="shape"/>
</filter>
</defs>
</svg>
